<svg xmlns="http://www.w3.org/2000/svg" width="21.6" height="20.571" viewBox="0 0 21.6 20.571"><defs><style>.a{fill:#fff;}</style></defs><path class="a" d="M21.131,10.37a1.538,1.538,0,0,0-.859-2.627l-5.23-.755a.683.683,0,0,1-.515-.372L12.189,1.905a1.553,1.553,0,0,0-2.778,0L7.073,6.616a.684.684,0,0,1-.515.372l-5.23.756A1.537,1.537,0,0,0,.469,10.37l3.784,3.667a.678.678,0,0,1,.2.6l-.893,5.178a1.526,1.526,0,0,0,.616,1.506,1.544,1.544,0,0,0,1.631.117l4.677-2.445a.688.688,0,0,1,.637,0L15.8,21.439a1.548,1.548,0,0,0,1.631-.117,1.526,1.526,0,0,0,.616-1.506l-.894-5.177a.678.678,0,0,1,.2-.6ZM16.3,14.784l.893,5.177a.666.666,0,0,1-.272.665.677.677,0,0,1-.72.052l-4.678-2.445a1.558,1.558,0,0,0-1.442,0L5.4,20.679a.678.678,0,0,1-.721-.052.666.666,0,0,1-.272-.665L5.3,14.784a1.534,1.534,0,0,0-.445-1.363L1.073,9.754a.679.679,0,0,1,.379-1.16l5.23-.755A1.546,1.546,0,0,0,7.848,7l2.339-4.711a.686.686,0,0,1,1.227,0L13.752,7a1.546,1.546,0,0,0,1.166.842l5.23.755a.679.679,0,0,1,.379,1.16l-3.784,3.667A1.534,1.534,0,0,0,16.3,14.784Z" transform="translate(0 -1.047)"/></svg>