<svg xmlns="http://www.w3.org/2000/svg" width="21.5" height="22.937" viewBox="0 0 21.5 22.937"><defs><style>.a{fill:#fff;}</style></defs><g transform="translate(-16.032 0.001)"><g transform="translate(16.032 -0.001)"><g transform="translate(0 0)"><path class="a" d="M37.342,5.06,26.928.033a.336.336,0,0,0-.292,0L16.222,5.06a.336.336,0,0,0-.19.3v12.21a.336.336,0,0,0,.19.3L26.636,22.9a.336.336,0,0,0,.292,0l10.414-5.028a.336.336,0,0,0,.19-.3V5.363A.336.336,0,0,0,37.342,5.06ZM26.782.709l9.641,4.654L33.629,6.712a.333.333,0,0,0-.057-.036L24,2.054ZM23.237,2.434l9.627,4.648-1.972.952L21.269,3.387ZM33.09,7.719v3.519l-1.842.889V8.608Zm3.771,9.643-9.742,4.7V10.6L29.442,9.48a.336.336,0,1,0-.292-.605l-2.368,1.143-.932-.45a.336.336,0,0,0-.292.605l.888.429V22.065l-9.742-4.7V5.9L24.123,9.48a.336.336,0,0,0,.292-.605L17.141,5.363l3.338-1.611L30.571,8.624l0,.006v4.032a.336.336,0,0,0,.482.3l2.514-1.214a.336.336,0,0,0,.19-.3V7.394l3.1-1.5V17.362Z" transform="translate(-16.032 0.001)"/></g></g><g transform="translate(17.466 15.287)"><g transform="translate(0)"><path class="a" d="M50.059,342.033l-1.528-.738a.336.336,0,0,0-.292.605l1.528.738a.336.336,0,0,0,.292-.605Z" transform="translate(-48.048 -341.261)"/></g></g><g transform="translate(17.468 13.694)"><g transform="translate(0)"><path class="a" d="M51.511,307.14l-2.933-1.416a.336.336,0,1,0-.292.605l2.933,1.416a.336.336,0,0,0,.292-.605Z" transform="translate(-48.096 -305.69)"/></g></g></g></svg>