<svg xmlns="http://www.w3.org/2000/svg" width="21.705" height="21.705" viewBox="0 0 21.705 21.705"><defs><style>.a{fill:#fff;stroke:#6b7280;stroke-width:0.5px;}</style></defs><g transform="translate(0.25 0.25)"><path class="a" d="M8.173,7.068H1.546A1.548,1.548,0,0,1,0,5.522V1.546A1.548,1.548,0,0,1,1.546,0H8.173A1.548,1.548,0,0,1,9.719,1.546V5.522A1.548,1.548,0,0,1,8.173,7.068ZM1.546,1.325a.221.221,0,0,0-.221.221V5.522a.221.221,0,0,0,.221.221H8.173a.221.221,0,0,0,.221-.221V1.546a.221.221,0,0,0-.221-.221Zm0,0"/><path class="a" d="M8.173,225.7H1.546A1.548,1.548,0,0,1,0,224.156v-9.277a1.548,1.548,0,0,1,1.546-1.546H8.173a1.548,1.548,0,0,1,1.546,1.546v9.277A1.548,1.548,0,0,1,8.173,225.7ZM1.546,214.657a.221.221,0,0,0-.221.221v9.277a.221.221,0,0,0,.221.221H8.173a.221.221,0,0,0,.221-.221v-9.277a.221.221,0,0,0-.221-.221Zm0,0" transform="translate(0 -204.497)"/><path class="a" d="M285.5,348.4h-6.627a1.548,1.548,0,0,1-1.546-1.546v-3.976a1.548,1.548,0,0,1,1.546-1.546H285.5a1.548,1.548,0,0,1,1.546,1.546v3.976A1.548,1.548,0,0,1,285.5,348.4Zm-6.627-5.743a.221.221,0,0,0-.221.221v3.976a.221.221,0,0,0,.221.221H285.5a.221.221,0,0,0,.221-.221v-3.976a.221.221,0,0,0-.221-.221Zm0,0" transform="translate(-265.846 -327.195)"/><path class="a" d="M285.5,12.37h-6.627a1.548,1.548,0,0,1-1.546-1.546V1.546A1.548,1.548,0,0,1,278.878,0H285.5a1.548,1.548,0,0,1,1.546,1.546v9.277A1.548,1.548,0,0,1,285.5,12.37ZM278.878,1.325a.221.221,0,0,0-.221.221v9.277a.221.221,0,0,0,.221.221H285.5a.221.221,0,0,0,.221-.221V1.546a.221.221,0,0,0-.221-.221Zm0,0" transform="translate(-265.846)"/></g></svg>