<svg xmlns="http://www.w3.org/2000/svg" width="31" height="31" viewBox="0 0 31 31"><defs><style>.a{fill:none;}.b{fill:#fff;}</style></defs><g transform="translate(-1696 -50.336)"><rect class="a" width="31" height="31" transform="translate(1696 50.336)"/><g transform="translate(1701.169 56.002)"><g transform="translate(0 6.452)"><path class="b" d="M34.49,159.222h-.965v-11.59a1.1,1.1,0,0,0-1.183-.978H30.185a1.1,1.1,0,0,0-1.183.978v11.59h-2.45v-6.339a1.1,1.1,0,0,0-1.183-.978H23.213a1.1,1.1,0,0,0-1.183.978v6.339H19.58v-3.283a1.1,1.1,0,0,0-1.183-.978H16.241a1.1,1.1,0,0,0-1.183.978v3.283H14.041a.37.37,0,1,0,0,.728H34.49a.37.37,0,1,0,0-.728Zm-15.79,0H15.938v-3.283a.281.281,0,0,1,.3-.25H18.4a.281.281,0,0,1,.3.25v3.283Zm6.972,0H22.91v-6.339a.281.281,0,0,1,.3-.25H25.37a.281.281,0,0,1,.3.25Zm6.972,0H29.882v-11.59a.281.281,0,0,1,.3-.25h2.157a.281.281,0,0,1,.3.25v11.59Z" transform="translate(-13.601 -146.654)"/></g><g transform="translate(3.772)"><path class="b" d="M115.5.463A.438.438,0,0,0,115.035,0h-2.683a.44.44,0,1,0,0,.88H114l-4.349,4.349-1.64-1.64a.44.44,0,0,0-.622,0L99.475,11.5a.44.44,0,0,0,.622.622l7.6-7.6,1.64,1.64a.44.44,0,0,0,.622,0l4.66-4.66V2.99a.44.44,0,1,0,.88,0V.484C115.5.477,115.5.47,115.5.463Z" transform="translate(-99.346)"/></g></g></g></svg>