<svg xmlns="http://www.w3.org/2000/svg" width="139.615" height="121" viewBox="0 0 139.615 121"><defs><style>.a{fill:#d7dbe6;}</style></defs><g transform="translate(0 -0.5)"><path class="a" d="M137.288,9.808h-6.981V2.827A2.327,2.327,0,0,0,127.981.5H79.115a11.592,11.592,0,0,0-9.308,4.725A11.592,11.592,0,0,0,60.5.5H11.635A2.327,2.327,0,0,0,9.308,2.827V9.808H2.327A2.327,2.327,0,0,0,0,12.135v93.077a2.327,2.327,0,0,0,2.327,2.327h90.75v11.635a2.327,2.327,0,0,0,3.972,1.645l5.336-5.336,5.336,5.336a2.327,2.327,0,0,0,1.645.682,2.283,2.283,0,0,0,.891-.177,2.327,2.327,0,0,0,1.436-2.15V107.538h25.6a2.327,2.327,0,0,0,2.327-2.327V12.135a2.327,2.327,0,0,0-2.327-2.327ZM79.115,5.154h46.538V84.269H79.115a11.519,11.519,0,0,0-6.981,2.387V12.135a6.981,6.981,0,0,1,6.981-6.981Zm-65.154,0H60.5a6.981,6.981,0,0,1,6.981,6.981V86.656A11.519,11.519,0,0,0,60.5,84.269H13.962ZM4.654,14.462H9.308v88.423H4.654Zm9.308,74.462H60.5a6.982,6.982,0,0,1,6.552,4.654H23.269v4.654H67.481v4.654H13.962Zm58.173,13.962V98.231H93.077v4.654Zm34.9,10.671-3.009-3.009a2.328,2.328,0,0,0-3.29,0l-3.009,3.009V98.231h9.308Zm4.654-15.325h4.654V93.577H72.563a6.982,6.982,0,0,1,6.552-4.654h46.538v13.962H111.692Zm23.269,4.654h-4.654V14.462h4.654Zm0,0"/><path class="a" d="M80,72.5h32.577v4.654H80Zm0,0" transform="translate(-56.731 -51.058)"/><path class="a" d="M80,120.5h32.577v4.654H80Zm0,0" transform="translate(-56.731 -85.096)"/><path class="a" d="M80,168.5h32.577v4.654H80Zm0,0" transform="translate(-56.731 -119.135)"/><path class="a" d="M80,216.5h32.577v4.654H80Zm0,0" transform="translate(-56.731 -153.173)"/><path class="a" d="M288,72.5h32.577v4.654H288Zm0,0" transform="translate(-204.231 -51.058)"/><path class="a" d="M288,120.5h32.577v4.654H288Zm0,0" transform="translate(-204.231 -85.096)"/><path class="a" d="M288,168.5h32.577v4.654H288Zm0,0" transform="translate(-204.231 -119.135)"/><path class="a" d="M288,216.5h32.577v4.654H288Zm0,0" transform="translate(-204.231 -153.173)"/></g></svg>