<svg xmlns="http://www.w3.org/2000/svg" width="12" height="12" viewBox="0 0 12 12"><defs><style>.a{fill:#e1e1e1;}</style></defs><g transform="translate(0 0)"><g transform="translate(0 0)"><path class="a" d="M11.858,11.858a.485.485,0,0,1-.686,0L.142.828A.485.485,0,1,1,.828.142l11.031,11.03A.485.485,0,0,1,11.858,11.858Z" transform="translate(0 0)"/></g><g transform="translate(0 0)"><g transform="translate(0)"><path class="a" d="M11.858.829.828,11.859a.485.485,0,0,1-.686-.685L11.173.143a.485.485,0,1,1,.685.686Z" transform="translate(0 -0.001)"/></g></g></g></svg>