<svg xmlns="http://www.w3.org/2000/svg" width="1090" height="616" viewBox="0 0 1090 616"><defs><style>.a,.b{fill:none;stroke-width:2px;}.a{stroke:#fff;}.b{stroke:#5e6167;}.c{fill:#58595b;font-size:16px;font-family:SegoeUI-Semibold, Segoe UI;font-weight:600;}.d{fill:#00b5a9;}.e{fill:#ff7e00;}.f{fill:#33a02c;}.g{fill:#e31a1c;}.h{fill:#1274b2;}</style></defs><g transform="translate(-270 -80)"><line class="a" y1="616" transform="translate(370 80)"/><line class="a" y1="616" transform="translate(470 80)"/><line class="a" y1="616" transform="translate(570 80)"/><line class="a" y1="616" transform="translate(670 80)"/><line class="a" y1="616" transform="translate(770 80)"/><line class="a" y1="616" transform="translate(870 80)"/><line class="a" y1="616" transform="translate(970 80)"/><line class="a" y1="616" transform="translate(1070 80)"/><line class="a" y1="616" transform="translate(1170 80)"/><line class="a" y1="616" transform="translate(1270 80)"/><line class="a" x1="1090" transform="translate(270 496)"/><line class="a" x1="1090" transform="translate(270 396)"/><line class="a" x1="1090" transform="translate(270 296)"/><line class="a" x1="1090" transform="translate(270 196)"/><line class="a" x1="1090" transform="translate(270 96)"/><line class="a" x1="1090" transform="translate(270 596)"/><line class="b" y1="15" transform="translate(370 681)"/><line class="b" y1="15" transform="translate(470 681)"/><line class="b" y1="15" transform="translate(570 681)"/><line class="b" y1="15" transform="translate(670 681)"/><line class="b" y1="15" transform="translate(770 681)"/><line class="b" y1="15" transform="translate(870 681)"/><line class="b" y1="15" transform="translate(970 681)"/><line class="b" y1="15" transform="translate(1070 681)"/><line class="b" y1="15" transform="translate(1170 681)"/><line class="b" y1="15" transform="translate(1270 681)"/><line class="b" x1="15" transform="translate(270 496)"/><line class="b" x1="15" transform="translate(270 396)"/><line class="b" x1="15" transform="translate(270 296)"/><line class="b" x1="15" transform="translate(270 196)"/><line class="b" x1="15" transform="translate(270 596)"/><text class="c" transform="translate(366 677)"><tspan x="-21.75" y="0">-10</tspan></text><circle class="d" cx="7" cy="7" r="7" transform="translate(733.945 302.799)"/><circle class="d" cx="7" cy="7" r="7" transform="translate(709.469 268.525)"/><circle class="d" cx="7" cy="7" r="7" transform="translate(566.488 226.3)"/><circle class="d" cx="7" cy="7" r="7" transform="translate(737.434 233.318)"/><circle class="d" cx="7" cy="7" r="7" transform="translate(612.365 384.918)"/><circle class="d" cx="7" cy="7" r="7" transform="translate(630.698 269.138)"/><circle class="d" cx="7" cy="7" r="7" transform="translate(479.314 415.327)"/><circle class="d" cx="7" cy="7" r="7" transform="translate(681.693 387.693)"/><circle class="d" cx="7" cy="7" r="7" transform="translate(772.8 393.721)"/><circle class="d" cx="7" cy="7" r="7" transform="translate(701.803 438.601)"/><circle class="d" cx="7" cy="7" r="7" transform="translate(746.189 459.225)"/><circle class="d" cx="7" cy="7" r="7" transform="translate(571.667 388.323)"/><circle class="d" cx="7" cy="7" r="7" transform="translate(561.08 223.526)"/><circle class="d" cx="7" cy="7" r="7" transform="translate(588.708 343.333)"/><circle class="d" cx="7" cy="7" r="7" transform="translate(592.646 446.06)"/><circle class="d" cx="7" cy="7" r="7" transform="translate(724.704 346.376)"/><circle class="d" cx="7" cy="7" r="7" transform="translate(662.353 391.182)"/><circle class="d" cx="7" cy="7" r="7" transform="translate(650.676 232.15)"/><circle class="d" cx="7" cy="7" r="7" transform="translate(548.04 305.737)"/><circle class="d" cx="7" cy="7" r="7" transform="translate(799.484 356.966)"/><circle class="d" cx="7" cy="7" r="7" transform="translate(542.38 349.388)"/><circle class="d" cx="7" cy="7" r="7" transform="translate(546.701 284.123)"/><circle class="d" cx="7" cy="7" r="7" transform="translate(784.421 420.311)"/><circle class="d" cx="7" cy="7" r="7" transform="translate(581.328 295.451)"/><circle class="d" cx="7" cy="7" r="7" transform="translate(432.883 419.819)"/><circle class="d" cx="7" cy="7" r="7" transform="translate(598.595 174.627)"/><circle class="d" cx="7" cy="7" r="7" transform="translate(641.958 303.613)"/><circle class="d" cx="7" cy="7" r="7" transform="translate(690.447 449.422)"/><circle class="d" cx="7" cy="7" r="7" transform="translate(676.528 264.395)"/><circle class="d" cx="7" cy="7" r="7" transform="translate(428.572 270.128)"/><circle class="d" cx="7" cy="7" r="7" transform="translate(671.297 454.344)"/><circle class="d" cx="7" cy="7" r="7" transform="translate(658.027 289.367)"/><circle class="d" cx="7" cy="7" r="7" transform="translate(586.972 174.967)"/><circle class="d" cx="7" cy="7" r="7" transform="translate(398.981 420.708)"/><circle class="d" cx="7" cy="7" r="7" transform="translate(787.262 383.934)"/><circle class="d" cx="7" cy="7" r="7" transform="translate(551.231 316.391)"/><circle class="d" cx="7" cy="7" r="7" transform="translate(700.825 401.074)"/><circle class="d" cx="7" cy="7" r="7" transform="translate(481.463 333.036)"/><circle class="d" cx="7" cy="7" r="7" transform="translate(512.923 336.232)"/><circle class="d" cx="7" cy="7" r="7" transform="translate(671.749 348.579)"/><circle class="d" cx="7" cy="7" r="7" transform="translate(719.677 269.02)"/><circle class="d" cx="7" cy="7" r="7" transform="translate(632.144 435.343)"/><circle class="d" cx="7" cy="7" r="7" transform="translate(506.94 340.937)"/><circle class="d" cx="7" cy="7" r="7" transform="translate(394.641 252.677)"/><circle class="d" cx="7" cy="7" r="7" transform="translate(484.667 401.078)"/><circle class="d" cx="7" cy="7" r="7" transform="translate(628.176 226.394)"/><circle class="d" cx="7" cy="7" r="7" transform="translate(618.199 344.307)"/><circle class="d" cx="7" cy="7" r="7" transform="translate(604.766 290.835)"/><circle class="d" cx="7" cy="7" r="7" transform="translate(798.907 328.735)"/><circle class="d" cx="7" cy="7" r="7" transform="translate(644.116 250.45)"/><circle class="d" cx="7" cy="7" r="7" transform="translate(628.283 334.178)"/><circle class="d" cx="7" cy="7" r="7" transform="translate(648.885 408.302)"/><circle class="d" cx="7" cy="7" r="7" transform="translate(685.574 266.766)"/><circle class="d" cx="7" cy="7" r="7" transform="translate(730.84 459.606)"/><circle class="d" cx="7" cy="7" r="7" transform="translate(717.697 253.777)"/><circle class="d" cx="7" cy="7" r="7" transform="translate(670.531 294.785)"/><circle class="d" cx="7" cy="7" r="7" transform="translate(751.709 348.481)"/><circle class="d" cx="7" cy="7" r="7" transform="translate(797.259 174.699)"/><circle class="d" cx="7" cy="7" r="7" transform="translate(514.291 366.997)"/><circle class="d" cx="7" cy="7" r="7" transform="translate(758.319 387.802)"/><circle class="d" cx="7" cy="7" r="7" transform="translate(735.854 374.691)"/><circle class="d" cx="7" cy="7" r="7" transform="translate(775.136 194.893)"/><circle class="d" cx="7" cy="7" r="7" transform="translate(445.791 272.972)"/><circle class="d" cx="7" cy="7" r="7" transform="translate(601.239 348.369)"/><circle class="d" cx="7" cy="7" r="7" transform="translate(372.851 295.747)"/><circle class="d" cx="7" cy="7" r="7" transform="translate(584.206 446.702)"/><circle class="d" cx="7" cy="7" r="7" transform="translate(392.259 267.221)"/><circle class="d" cx="7" cy="7" r="7" transform="translate(656.258 229.401)"/><circle class="d" cx="7" cy="7" r="7" transform="translate(672.628 440.944)"/><circle class="d" cx="7" cy="7" r="7" transform="translate(496.817 339.693)"/><circle class="d" cx="7" cy="7" r="7" transform="translate(679.954 331.431)"/><circle class="d" cx="7" cy="7" r="7" transform="translate(530.476 421.191)"/><circle class="d" cx="7" cy="7" r="7" transform="translate(692.248 371.552)"/><circle class="d" cx="7" cy="7" r="7" transform="translate(590.014 411.786)"/><circle class="d" cx="7" cy="7" r="7" transform="translate(500.679 267.844)"/><circle class="d" cx="7" cy="7" r="7" transform="translate(693.104 406.443)"/><circle class="d" cx="7" cy="7" r="7" transform="translate(580.38 458.934)"/><circle class="d" cx="7" cy="7" r="7" transform="translate(787.497 357.455)"/><circle class="d" cx="7" cy="7" r="7" transform="translate(442.571 245.545)"/><circle class="d" cx="7" cy="7" r="7" transform="translate(531.511 370.09)"/><circle class="d" cx="7" cy="7" r="7" transform="translate(599.005 382.389)"/><circle class="d" cx="7" cy="7" r="7" transform="translate(506.01 268.601)"/><circle class="d" cx="7" cy="7" r="7" transform="translate(616.672 273.772)"/><circle class="d" cx="7" cy="7" r="7" transform="translate(499.763 292.782)"/><circle class="d" cx="7" cy="7" r="7" transform="translate(710.078 346.239)"/><circle class="d" cx="7" cy="7" r="7" transform="translate(376.843 247.452)"/><circle class="d" cx="7" cy="7" r="7" transform="translate(625.811 449.332)"/><circle class="d" cx="7" cy="7" r="7" transform="translate(751.007 458.83)"/><circle class="d" cx="7" cy="7" r="7" transform="translate(421.41 291.739)"/><circle class="d" cx="7" cy="7" r="7" transform="translate(596.656 251.989)"/><circle class="d" cx="7" cy="7" r="7" transform="translate(703.307 316.003)"/><circle class="d" cx="7" cy="7" r="7" transform="translate(660.562 433.073)"/><circle class="d" cx="7" cy="7" r="7" transform="translate(781.089 358.989)"/><circle class="d" cx="7" cy="7" r="7" transform="translate(510.422 417.439)"/><circle class="d" cx="7" cy="7" r="7" transform="translate(506.109 329.585)"/><circle class="d" cx="7" cy="7" r="7" transform="translate(584.958 326.239)"/><circle class="d" cx="7" cy="7" r="7" transform="translate(576.55 375.689)"/><circle class="d" cx="7" cy="7" r="7" transform="translate(780.743 314.616)"/><circle class="d" cx="7" cy="7" r="7" transform="translate(449.498 218.204)"/><circle class="d" cx="7" cy="7" r="7" transform="translate(564.363 273.023)"/><circle class="d" cx="7" cy="7" r="7" transform="translate(554.324 250.933)"/><circle class="d" cx="7" cy="7" r="7" transform="translate(738.237 268.026)"/><circle class="d" cx="7" cy="7" r="7" transform="translate(481.791 292.4)"/><circle class="d" cx="7" cy="7" r="7" transform="translate(567.389 256.461)"/><circle class="d" cx="7" cy="7" r="7" transform="translate(565.151 190.584)"/><circle class="d" cx="7" cy="7" r="7" transform="translate(508.128 414.513)"/><circle class="d" cx="7" cy="7" r="7" transform="translate(806.925 315.079)"/><circle class="d" cx="7" cy="7" r="7" transform="translate(558.048 202.015)"/><circle class="d" cx="7" cy="7" r="7" transform="translate(472.348 258.98)"/><circle class="d" cx="7" cy="7" r="7" transform="translate(632.178 405.544)"/><circle class="d" cx="7" cy="7" r="7" transform="translate(491.124 358.555)"/><circle class="d" cx="7" cy="7" r="7" transform="translate(605.892 462.198)"/><circle class="d" cx="7" cy="7" r="7" transform="translate(750.191 265.259)"/><circle class="d" cx="7" cy="7" r="7" transform="translate(677.107 417.153)"/><circle class="d" cx="7" cy="7" r="7" transform="translate(638.844 396.229)"/><circle class="d" cx="7" cy="7" r="7" transform="translate(629.011 313.243)"/><circle class="d" cx="7" cy="7" r="7" transform="translate(452.199 276.672)"/><circle class="d" cx="7" cy="7" r="7" transform="translate(698.789 315.686)"/><circle class="d" cx="7" cy="7" r="7" transform="translate(739.182 315.567)"/><circle class="d" cx="7" cy="7" r="7" transform="translate(794.888 387.092)"/><circle class="d" cx="7" cy="7" r="7" transform="translate(675.153 322.064)"/><circle class="d" cx="7" cy="7" r="7" transform="translate(550.398 401.227)"/><circle class="d" cx="7" cy="7" r="7" transform="translate(764.946 432.049)"/><circle class="d" cx="7" cy="7" r="7" transform="translate(677.665 460.68)"/><circle class="d" cx="7" cy="7" r="7" transform="translate(639.275 420.344)"/><circle class="d" cx="7" cy="7" r="7" transform="translate(704.661 309.346)"/><circle class="d" cx="7" cy="7" r="7" transform="translate(770.61 178.417)"/><circle class="d" cx="7" cy="7" r="7" transform="translate(712.423 437.308)"/><circle class="d" cx="7" cy="7" r="7" transform="translate(610.19 237.528)"/><circle class="d" cx="7" cy="7" r="7" transform="translate(437.6 252.883)"/><circle class="d" cx="7" cy="7" r="7" transform="translate(688.871 343.68)"/><circle class="d" cx="7" cy="7" r="7" transform="translate(780.446 408.633)"/><circle class="d" cx="7" cy="7" r="7" transform="translate(761.308 370.467)"/><circle class="d" cx="7" cy="7" r="7" transform="translate(538.499 295.946)"/><g transform="translate(-128 -28)"><circle class="e" cx="7" cy="7" r="7" transform="translate(1042.567 303.669) rotate(-51)"/><circle class="e" cx="7" cy="7" r="7" transform="translate(1000.527 301.119) rotate(-51)"/><circle class="e" cx="7" cy="7" r="7" transform="translate(877.732 385.664) rotate(-51)"/><circle class="e" cx="7" cy="7" r="7" transform="translate(990.766 257.231) rotate(-51)"/><circle class="e" cx="7" cy="7" r="7" transform="translate(1029.872 449.833) rotate(-51)"/><circle class="e" cx="7" cy="7" r="7" transform="translate(951.431 362.722) rotate(-51)"/><circle class="e" cx="7" cy="7" r="7" transform="translate(969.772 572.369) rotate(-51)"/><circle class="e" cx="7" cy="7" r="7" transform="translate(1075.658 397.7) rotate(-51)"/><circle class="e" cx="7" cy="7" r="7" transform="translate(1127.877 414.11) rotate(-51)"/><circle class="e" cx="7" cy="7" r="7" transform="translate(1171.837 392.595) rotate(-51)"/><circle class="e" cx="7" cy="7" r="7" transform="translate(1006.906 483.604) rotate(-51)"/><circle class="e" cx="7" cy="7" r="7" transform="translate(872.173 388.122) rotate(-51)"/><circle class="e" cx="7" cy="7" r="7" transform="translate(982.667 442.047) rotate(-51)"/><circle class="e" cx="7" cy="7" r="7" transform="translate(1064.98 503.635) rotate(-51)"/><circle class="e" cx="7" cy="7" r="7" transform="translate(1070.617 338.274) rotate(-51)"/><circle class="e" cx="7" cy="7" r="7" transform="translate(1066.199 414.927) rotate(-51)"/><circle class="e" cx="7" cy="7" r="7" transform="translate(935.259 323.919) rotate(-51)"/><circle class="e" cx="7" cy="7" r="7" transform="translate(927.856 449.992) rotate(-51)"/><circle class="e" cx="7" cy="7" r="7" transform="translate(958.218 481.862) rotate(-51)"/><circle class="e" cx="7" cy="7" r="7" transform="translate(910.216 437.431) rotate(-51)"/><circle class="e" cx="7" cy="7" r="7" transform="translate(940.811 417.65) rotate(-51)"/><circle class="e" cx="7" cy="7" r="7" transform="translate(944.044 611.281) rotate(-51)"/><circle class="e" cx="7" cy="7" r="7" transform="translate(857.78 328.193) rotate(-51)"/><circle class="e" cx="7" cy="7" r="7" transform="translate(985.31 375.667) rotate(-51)"/><circle class="e" cx="7" cy="7" r="7" transform="translate(1129.141 429.746) rotate(-51)"/><circle class="e" cx="7" cy="7" r="7" transform="translate(976.588 324.121) rotate(-51)"/><circle class="e" cx="7" cy="7" r="7" transform="translate(824.999 520.427) rotate(-51)"/><circle class="e" cx="7" cy="7" r="7" transform="translate(1120.914 447.726) rotate(-51)"/><circle class="e" cx="7" cy="7" r="7" transform="translate(984.352 354.214) rotate(-51)"/><circle class="e" cx="7" cy="7" r="7" transform="translate(850.729 337.44) rotate(-51)"/><circle class="e" cx="7" cy="7" r="7" transform="translate(923.4 638.186) rotate(-51)"/><circle class="e" cx="7" cy="7" r="7" transform="translate(938.144 454.217) rotate(-51)"/><circle class="e" cx="7" cy="7" r="7" transform="translate(1098.098 391.254) rotate(-51)"/><circle class="e" cx="7" cy="7" r="7" transform="translate(907.174 518.912) rotate(-51)"/><circle class="e" cx="7" cy="7" r="7" transform="translate(929.455 496.475) rotate(-51)"/><circle class="e" cx="7" cy="7" r="7" transform="translate(1039.004 380.813) rotate(-51)"/><circle class="e" cx="7" cy="7" r="7" transform="translate(1007.336 293.498) rotate(-51)"/><circle class="e" cx="7" cy="7" r="7" transform="translate(1081.507 466.195) rotate(-51)"/><circle class="e" cx="7" cy="7" r="7" transform="translate(929.346 504.084) rotate(-51)"/><circle class="e" cx="7" cy="7" r="7" transform="translate(790.083 535.814) rotate(-51)"/><circle class="e" cx="7" cy="7" r="7" transform="translate(962.068 559.242) rotate(-51)"/><circle class="e" cx="7" cy="7" r="7" transform="translate(916.627 337.783) rotate(-51)"/><circle class="e" cx="7" cy="7" r="7" transform="translate(1001.983 419.741) rotate(-51)"/><circle class="e" cx="7" cy="7" r="7" transform="translate(951.974 396.53) rotate(-51)"/><circle class="e" cx="7" cy="7" r="7" transform="translate(945.353 340.534) rotate(-51)"/><circle class="e" cx="7" cy="7" r="7" transform="translate(1000.458 405.531) rotate(-51)"/><circle class="e" cx="7" cy="7" r="7" transform="translate(1071.029 436.168) rotate(-51)"/><circle class="e" cx="7" cy="7" r="7" transform="translate(984.122 318.583) rotate(-51)"/><circle class="e" cx="7" cy="7" r="7" transform="translate(1162.475 404.763) rotate(-51)"/><circle class="e" cx="7" cy="7" r="7" transform="translate(994.244 285.445) rotate(-51)"/><circle class="e" cx="7" cy="7" r="7" transform="translate(996.43 347.906) rotate(-51)"/><circle class="e" cx="7" cy="7" r="7" transform="translate(1089.248 318.611) rotate(-51)"/><circle class="e" cx="7" cy="7" r="7" transform="translate(982.859 173.848) rotate(-51)"/><circle class="e" cx="7" cy="7" r="7" transform="translate(954.225 514.772) rotate(-51)"/><circle class="e" cx="7" cy="7" r="7" transform="translate(1099.638 347.427) rotate(-51)"/><circle class="e" cx="7" cy="7" r="7" transform="translate(984.631 203.75) rotate(-51)"/><circle class="e" cx="7" cy="7" r="7" transform="translate(838.045 508.835) rotate(-51)"/><circle class="e" cx="7" cy="7" r="7" transform="translate(994.467 435.478) rotate(-51)"/><circle class="e" cx="7" cy="7" r="7" transform="translate(809.842 579.853) rotate(-51)"/><circle class="e" cx="7" cy="7" r="7" transform="translate(1060.166 510.597) rotate(-51)"/><circle class="e" cx="7" cy="7" r="7" transform="translate(799.887 546.818) rotate(-51)"/><circle class="e" cx="7" cy="7" r="7" transform="translate(936.636 317.852) rotate(-51)"/><circle class="e" cx="7" cy="7" r="7" transform="translate(1111.337 438.257) rotate(-51)"/><circle class="e" cx="7" cy="7" r="7" transform="translate(922.009 511.169) rotate(-51)"/><circle class="e" cx="7" cy="7" r="7" transform="translate(1030.84 363.646) rotate(-51)"/><circle class="e" cx="7" cy="7" r="7" transform="translate(1006.527 536.299) rotate(-51)"/><circle class="e" cx="7" cy="7" r="7" transform="translate(1069.757 379.34) rotate(-51)"/><circle class="e" cx="7" cy="7" r="7" transform="translate(1036.687 484.112) rotate(-51)"/><circle class="e" cx="7" cy="7" r="7" transform="translate(868.602 462.952) rotate(-51)"/><circle class="e" cx="7" cy="7" r="7" transform="translate(1097.41 400.633) rotate(-51)"/><circle class="e" cx="7" cy="7" r="7" transform="translate(1067.265 521.269) rotate(-51)"/><circle class="e" cx="7" cy="7" r="7" transform="translate(814.704 494.077) rotate(-51)"/><circle class="e" cx="7" cy="7" r="7" transform="translate(967.466 503.336) rotate(-51)"/><circle class="e" cx="7" cy="7" r="7" transform="translate(1019.499 458.623) rotate(-51)"/><circle class="e" cx="7" cy="7" r="7" transform="translate(872.546 459.285) rotate(-51)"/><circle class="e" cx="7" cy="7" r="7" transform="translate(946.206 376.539) rotate(-51)"/><circle class="e" cx="7" cy="7" r="7" transform="translate(887.406 479.358) rotate(-51)"/><circle class="e" cx="7" cy="7" r="7" transform="translate(1061.307 349.554) rotate(-51)"/><circle class="e" cx="7" cy="7" r="7" transform="translate(774.822 546.358) rotate(-51)"/><circle class="e" cx="7" cy="7" r="7" transform="translate(1088.393 479.92) rotate(-51)"/><circle class="e" cx="7" cy="7" r="7" transform="translate(1174.563 388.602) rotate(-51)"/><circle class="e" cx="7" cy="7" r="7" transform="translate(837.287 539.594) rotate(-51)"/><circle class="e" cx="7" cy="7" r="7" transform="translate(916.681 378.385) rotate(-51)"/><circle class="e" cx="7" cy="7" r="7" transform="translate(1033.547 335.787) rotate(-51)"/><circle class="e" cx="7" cy="7" r="7" transform="translate(1097.627 442.681) rotate(-51)"/><circle class="e" cx="7" cy="7" r="7" transform="translate(990.99 549.523) rotate(-51)"/><circle class="e" cx="7" cy="7" r="7" transform="translate(920.002 497.587) rotate(-51)"/><circle class="e" cx="7" cy="7" r="7" transform="translate(967.022 434.204) rotate(-51)"/><circle class="e" cx="7" cy="7" r="7" transform="translate(1000.161 471.858) rotate(-51)"/><circle class="e" cx="7" cy="7" r="7" transform="translate(1081.202 274.736) rotate(-51)"/><circle class="e" cx="7" cy="7" r="7" transform="translate(797.816 471.487) rotate(-51)"/><circle class="e" cx="7" cy="7" r="7" transform="translate(912.705 416.72) rotate(-51)"/><circle class="e" cx="7" cy="7" r="7" transform="translate(889.22 410.619) rotate(-51)"/><circle class="e" cx="7" cy="7" r="7" transform="translate(1018.244 278.449) rotate(-51)"/><circle class="e" cx="7" cy="7" r="7" transform="translate(875.799 493.085) rotate(-51)"/><circle class="e" cx="7" cy="7" r="7" transform="translate(901.738 403.945) rotate(-51)"/><circle class="e" cx="7" cy="7" r="7" transform="translate(849.134 364.227) rotate(-51)"/><circle class="e" cx="7" cy="7" r="7" transform="translate(987.273 549.464) rotate(-51)"/><circle class="e" cx="7" cy="7" r="7" transform="translate(1098.038 254.68) rotate(-51)"/><circle class="e" cx="7" cy="7" r="7" transform="translate(853.548 376.941) rotate(-51)"/><circle class="e" cx="7" cy="7" r="7" transform="translate(843.884 479.391) rotate(-51)"/><circle class="e" cx="7" cy="7" r="7" transform="translate(1058.371 447.416) rotate(-51)"/><circle class="e" cx="7" cy="7" r="7" transform="translate(933.085 527.464) rotate(-51)"/><circle class="e" cx="7" cy="7" r="7" transform="translate(1085.857 503.497) rotate(-51)"/><circle class="e" cx="7" cy="7" r="7" transform="translate(1023.617 267.417) rotate(-51)"/><circle class="e" cx="7" cy="7" r="7" transform="translate(1095.666 419.805) rotate(-51)"/><circle class="e" cx="7" cy="7" r="7" transform="translate(1055.327 436.373) rotate(-51)"/><circle class="e" cx="7" cy="7" r="7" transform="translate(984.645 391.789) rotate(-51)"/><circle class="e" cx="7" cy="7" r="7" transform="translate(844.954 506.184) rotate(-51)"/><circle class="e" cx="7" cy="7" r="7" transform="translate(1030.457 339.099) rotate(-51)"/><circle class="e" cx="7" cy="7" r="7" transform="translate(1055.786 307.633) rotate(-51)"/><circle class="e" cx="7" cy="7" r="7" transform="translate(1020.54 361.482) rotate(-51)"/><circle class="e" cx="7" cy="7" r="7" transform="translate(1003.549 508.253) rotate(-51)"/><circle class="e" cx="7" cy="7" r="7" transform="translate(1129.845 446.764) rotate(-51)"/><circle class="e" cx="7" cy="7" r="7" transform="translate(1074.339 451.213) rotate(-51)"/><circle class="e" cx="7" cy="7" r="7" transform="translate(1029.226 330.546) rotate(-51)"/><circle class="e" cx="7" cy="7" r="7" transform="translate(968.978 196.898) rotate(-51)"/><circle class="e" cx="7" cy="7" r="7" transform="translate(1133.555 405.043) rotate(-51)"/><circle class="e" cx="7" cy="7" r="7" transform="translate(913.96 358.767) rotate(-51)"/><circle class="e" cx="7" cy="7" r="7" transform="translate(817.279 502.558) rotate(-51)"/><circle class="e" cx="7" cy="7" r="7" transform="translate(1045.971 364.424) rotate(-51)"/><circle class="e" cx="7" cy="7" r="7" transform="translate(914.242 451.245) rotate(-51)"/></g><g transform="translate(3116 10231)"><circle class="f" cx="7" cy="7" r="7" transform="translate(-1899.652 -9700.636)"/><circle class="f" cx="7" cy="7" r="7" transform="translate(-2146.022 -9803.418)"/><circle class="f" cx="7" cy="7" r="7" transform="translate(-2162.535 -9866.474)"/><circle class="f" cx="7" cy="7" r="7" transform="translate(-2191.856 -9922.325)"/><circle class="f" cx="7" cy="7" r="7" transform="translate(-2052.553 -9710.178)"/><circle class="f" cx="7" cy="7" r="7" transform="translate(-1959.681 -9759.84)"/><circle class="f" cx="7" cy="7" r="7" transform="translate(-2091.526 -9732.417)"/><circle class="f" cx="7" cy="7" r="7" transform="translate(-1924.615 -9724.715)"/><circle class="f" cx="7" cy="7" r="7" transform="translate(-2158.951 -9700.907)"/><circle class="f" cx="7" cy="7" r="7" transform="translate(-2150.701 -9864.875)"/><circle class="f" cx="7" cy="7" r="7" transform="translate(-2142.906 -9916.096)"/><circle class="f" cx="7" cy="7" r="7" transform="translate(-2207.919 -9677.26)"/><circle class="f" cx="7" cy="7" r="7" transform="translate(-2270.325 -9690.557)"/><circle class="f" cx="7" cy="7" r="7" transform="translate(-1904.863 -9786.552)"/><circle class="f" cx="7" cy="7" r="7" transform="translate(-2297.474 -9665.038)"/><circle class="f" cx="7" cy="7" r="7" transform="translate(-2259.094 -9829.208)"/><circle class="f" cx="7" cy="7" r="7" transform="translate(-2016.738 -9832.846)"/><circle class="f" cx="7" cy="7" r="7" transform="translate(-2239.306 -9714.156)"/><circle class="f" cx="7" cy="7" r="7" transform="translate(-2154.695 -9746.753)"/><circle class="f" cx="7" cy="7" r="7" transform="translate(-2206.619 -9930.76)"/><circle class="f" cx="7" cy="7" r="7" transform="translate(-2149.809 -9866.877)"/><circle class="f" cx="7" cy="7" r="7" transform="translate(-1987.434 -9857.724)"/><circle class="f" cx="7" cy="7" r="7" transform="translate(-1981.806 -9746.33)"/><circle class="f" cx="7" cy="7" r="7" transform="translate(-1869.91 -9715.342)"/><circle class="f" cx="7" cy="7" r="7" transform="translate(-2113.375 -9680.518)"/><circle class="f" cx="7" cy="7" r="7" transform="translate(-2210.865 -9824.389)"/><circle class="f" cx="7" cy="7" r="7" transform="translate(-2201.158 -9720.429)"/><circle class="f" cx="7" cy="7" r="7" transform="translate(-1928.053 -9807.737)"/><circle class="f" cx="7" cy="7" r="7" transform="translate(-1912.68 -9761.178)"/><circle class="f" cx="7" cy="7" r="7" transform="translate(-2036.653 -9840.308)"/><circle class="f" cx="7" cy="7" r="7" transform="translate(-2243.74 -9864.231)"/><circle class="f" cx="7" cy="7" r="7" transform="translate(-2209.483 -9776.404)"/><circle class="f" cx="7" cy="7" r="7" transform="translate(-2221.873 -9889.561)"/><circle class="f" cx="7" cy="7" r="7" transform="translate(-2013.312 -9715.538)"/><circle class="f" cx="7" cy="7" r="7" transform="translate(-2162.901 -9886.896)"/><circle class="f" cx="7" cy="7" r="7" transform="translate(-2262.575 -9720.051)"/><circle class="f" cx="7" cy="7" r="7" transform="translate(-1843.143 -9798.283)"/><circle class="f" cx="7" cy="7" r="7" transform="translate(-2070.561 -9718.711)"/><circle class="f" cx="7" cy="7" r="7" transform="translate(-2051.833 -9767.308)"/><circle class="f" cx="7" cy="7" r="7" transform="translate(-1935.844 -9733.842)"/><circle class="f" cx="7" cy="7" r="7" transform="translate(-2175.088 -9690.677)"/><circle class="f" cx="7" cy="7" r="7" transform="translate(-2207.478 -9880.627)"/><circle class="f" cx="7" cy="7" r="7" transform="translate(-2109.898 -9709.616)"/><circle class="f" cx="7" cy="7" r="7" transform="translate(-2182.921 -9842.259)"/><circle class="f" cx="7" cy="7" r="7" transform="translate(-2269.106 -9874.306)"/><circle class="f" cx="7" cy="7" r="7" transform="translate(-2215.468 -9677.377)"/><circle class="f" cx="7" cy="7" r="7" transform="translate(-2110.988 -9722.6)"/><circle class="f" cx="7" cy="7" r="7" transform="translate(-2210.626 -9825.554)"/><circle class="f" cx="7" cy="7" r="7" transform="translate(-1847.84 -9701.342)"/><circle class="f" cx="7" cy="7" r="7" transform="translate(-1910.254 -9759.09)"/><circle class="f" cx="7" cy="7" r="7" transform="translate(-2276.067 -9655.785)"/><circle class="f" cx="7" cy="7" r="7" transform="translate(-2116.035 -9649.427)"/><circle class="f" cx="7" cy="7" r="7" transform="translate(-1948.194 -9739.075)"/><circle class="f" cx="7" cy="7" r="7" transform="translate(-2164.38 -9724.415)"/><circle class="f" cx="7" cy="7" r="7" transform="translate(-2068.434 -9809.607)"/><circle class="f" cx="7" cy="7" r="7" transform="translate(-1901.45 -9776.268)"/><circle class="f" cx="7" cy="7" r="7" transform="translate(-2280.916 -9892.883)"/><circle class="f" cx="7" cy="7" r="7" transform="translate(-2227.337 -9802.181)"/><circle class="f" cx="7" cy="7" r="7" transform="translate(-1938.232 -9708.141)"/><circle class="f" cx="7" cy="7" r="7" transform="translate(-1854.951 -9744.413)"/><circle class="f" cx="7" cy="7" r="7" transform="translate(-2107.808 -9636.564)"/><circle class="f" cx="7" cy="7" r="7" transform="translate(-2216.598 -9768.124)"/><circle class="f" cx="7" cy="7" r="7" transform="translate(-2157.917 -9668.6)"/><circle class="f" cx="7" cy="7" r="7" transform="translate(-2159.535 -9803.203)"/><circle class="f" cx="7" cy="7" r="7" transform="translate(-2005.298 -9764.191)"/><circle class="f" cx="7" cy="7" r="7" transform="translate(-2222.999 -9650.334)"/><circle class="f" cx="7" cy="7" r="7" transform="translate(-2159.051 -9836.592)"/><circle class="f" cx="7" cy="7" r="7" transform="translate(-2288.268 -9679.762)"/><circle class="f" cx="7" cy="7" r="7" transform="translate(-2004.526 -9745.823)"/><circle class="f" cx="7" cy="7" r="7" transform="translate(-2038.065 -9738.597)"/><circle class="f" cx="7" cy="7" r="7" transform="translate(-2190.924 -9903.266)"/><circle class="f" cx="7" cy="7" r="7" transform="translate(-2150.764 -9785.28)"/><circle class="f" cx="7" cy="7" r="7" transform="translate(-1828.469 -9726.102)"/><circle class="f" cx="7" cy="7" r="7" transform="translate(-2154.946 -9785.116)"/><circle class="f" cx="7" cy="7" r="7" transform="translate(-2159.318 -9808.833)"/><circle class="f" cx="7" cy="7" r="7" transform="translate(-2002.031 -9722.545)"/><circle class="f" cx="7" cy="7" r="7" transform="translate(-2176.213 -9781.529)"/><circle class="f" cx="7" cy="7" r="7" transform="translate(-1951.719 -9860.31)"/><circle class="f" cx="7" cy="7" r="7" transform="translate(-2154.041 -9746.409)"/><circle class="f" cx="7" cy="7" r="7" transform="translate(-2112.594 -9786.1)"/><circle class="f" cx="7" cy="7" r="7" transform="translate(-2135.063 -9621.063)"/><circle class="f" cx="7" cy="7" r="7" transform="translate(-2288.396 -9700.254)"/><circle class="f" cx="7" cy="7" r="7" transform="translate(-2260.387 -9855.013)"/><circle class="f" cx="7" cy="7" r="7" transform="translate(-2100.099 -9739.692)"/><circle class="f" cx="7" cy="7" r="7" transform="translate(-2223.596 -9684.584)"/><circle class="f" cx="7" cy="7" r="7" transform="translate(-2135.894 -9669.483)"/><circle class="f" cx="7" cy="7" r="7" transform="translate(-2141.195 -9736.712)"/><circle class="f" cx="7" cy="7" r="7" transform="translate(-2071.711 -9828.302)"/><circle class="f" cx="7" cy="7" r="7" transform="translate(-1840.087 -9714.906)"/><circle class="f" cx="7" cy="7" r="7" transform="translate(-2141.743 -9763.683)"/><circle class="f" cx="7" cy="7" r="7" transform="translate(-2030.698 -9771.288)"/><circle class="f" cx="7" cy="7" r="7" transform="translate(-2003.249 -9815.427)"/><circle class="f" cx="7" cy="7" r="7" transform="translate(-2184.618 -9677.234)"/><circle class="f" cx="7" cy="7" r="7" transform="translate(-2293.388 -9710.324)"/><circle class="f" cx="7" cy="7" r="7" transform="translate(-2078.899 -9797.114)"/><circle class="f" cx="7" cy="7" r="7" transform="translate(-2136.131 -9621.434)"/><circle class="f" cx="7" cy="7" r="7" transform="translate(-2121.786 -9760.012)"/><circle class="f" cx="7" cy="7" r="7" transform="translate(-1868.583 -9717.111)"/><circle class="f" cx="7" cy="7" r="7" transform="translate(-2103.523 -9639.956)"/><circle class="f" cx="7" cy="7" r="7" transform="translate(-2057.183 -9817.39)"/><circle class="f" cx="7" cy="7" r="7" transform="translate(-2113.62 -9708.425)"/><circle class="f" cx="7" cy="7" r="7" transform="translate(-2243.798 -9869.867)"/><circle class="f" cx="7" cy="7" r="7" transform="translate(-2004.915 -9895.529)"/><circle class="f" cx="7" cy="7" r="7" transform="translate(-2202.947 -9711.647)"/><circle class="f" cx="7" cy="7" r="7" transform="translate(-1977.641 -9713.521)"/><circle class="f" cx="7" cy="7" r="7" transform="translate(-1995.208 -9709.799)"/><circle class="f" cx="7" cy="7" r="7" transform="translate(-2038.846 -9709.183)"/><circle class="f" cx="7" cy="7" r="7" transform="translate(-2264.454 -9829.769)"/><circle class="f" cx="7" cy="7" r="7" transform="translate(-1927.206 -9854.481)"/><circle class="f" cx="7" cy="7" r="7" transform="translate(-2075.314 -9783.162)"/><circle class="f" cx="7" cy="7" r="7" transform="translate(-2228.571 -9738.734)"/><circle class="f" cx="7" cy="7" r="7" transform="translate(-2145.331 -9887.532)"/><circle class="f" cx="7" cy="7" r="7" transform="translate(-2027.957 -9805.119)"/><circle class="f" cx="7" cy="7" r="7" transform="translate(-2105.71 -9775.147)"/><circle class="f" cx="7" cy="7" r="7" transform="translate(-2040.869 -9760.452)"/><circle class="f" cx="7" cy="7" r="7" transform="translate(-2016.453 -9858.403)"/><circle class="f" cx="7" cy="7" r="7" transform="translate(-2067.52 -9907.514)"/><circle class="f" cx="7" cy="7" r="7" transform="translate(-1843.205 -9787.609)"/><circle class="f" cx="7" cy="7" r="7" transform="translate(-2155.111 -9865.473)"/><circle class="f" cx="7" cy="7" r="7" transform="translate(-2156.473 -9877.08)"/><circle class="f" cx="7" cy="7" r="7" transform="translate(-2095.774 -9643.559)"/><circle class="f" cx="7" cy="7" r="7" transform="translate(-2228.556 -9793.334)"/><circle class="f" cx="7" cy="7" r="7" transform="translate(-1856.169 -9752.867)"/><circle class="f" cx="7" cy="7" r="7" transform="translate(-1933.912 -9783.877)"/><circle class="f" cx="7" cy="7" r="7" transform="translate(-2144.617 -9903.13)"/><circle class="f" cx="7" cy="7" r="7" transform="translate(-2082.581 -9749.462)"/><circle class="f" cx="7" cy="7" r="7" transform="translate(-2235.363 -9686.689)"/><circle class="f" cx="7" cy="7" r="7" transform="translate(-1932.229 -9795.519)"/></g><g transform="translate(2638 10208)"><circle class="g" cx="7" cy="7" r="7" transform="translate(-1899.652 -9700.636)"/><circle class="g" cx="7" cy="7" r="7" transform="translate(-2146.022 -9803.418)"/><circle class="g" cx="7" cy="7" r="7" transform="translate(-2162.535 -9866.474)"/><circle class="g" cx="7" cy="7" r="7" transform="translate(-2191.856 -9922.325)"/><circle class="g" cx="7" cy="7" r="7" transform="translate(-2150.701 -9864.875)"/><circle class="g" cx="7" cy="7" r="7" transform="translate(-2142.906 -9916.096)"/><circle class="g" cx="7" cy="7" r="7" transform="translate(-2207.919 -9677.26)"/><circle class="g" cx="7" cy="7" r="7" transform="translate(-2259.094 -9829.208)"/><circle class="g" cx="7" cy="7" r="7" transform="translate(-2016.738 -9832.846)"/><circle class="g" cx="7" cy="7" r="7" transform="translate(-2239.306 -9714.156)"/><circle class="g" cx="7" cy="7" r="7" transform="translate(-2154.695 -9746.753)"/><circle class="g" cx="7" cy="7" r="7" transform="translate(-2206.619 -9930.76)"/><circle class="g" cx="7" cy="7" r="7" transform="translate(-2149.809 -9866.877)"/><circle class="g" cx="7" cy="7" r="7" transform="translate(-1869.91 -9715.342)"/><circle class="g" cx="7" cy="7" r="7" transform="translate(-2210.865 -9824.389)"/><circle class="g" cx="7" cy="7" r="7" transform="translate(-2201.158 -9720.429)"/><circle class="g" cx="7" cy="7" r="7" transform="translate(-2036.653 -9840.308)"/><circle class="g" cx="7" cy="7" r="7" transform="translate(-2243.74 -9864.231)"/><circle class="g" cx="7" cy="7" r="7" transform="translate(-2209.483 -9776.404)"/><circle class="g" cx="7" cy="7" r="7" transform="translate(-2221.873 -9889.561)"/><circle class="g" cx="7" cy="7" r="7" transform="translate(-2162.901 -9886.896)"/><circle class="g" cx="7" cy="7" r="7" transform="translate(-2051.833 -9767.308)"/><circle class="g" cx="7" cy="7" r="7" transform="translate(-2207.478 -9880.627)"/><circle class="g" cx="7" cy="7" r="7" transform="translate(-2182.921 -9842.259)"/><circle class="g" cx="7" cy="7" r="7" transform="translate(-2189.106 -9807.306)"/><circle class="g" cx="7" cy="7" r="7" transform="translate(-2215.468 -9677.377)"/><circle class="g" cx="7" cy="7" r="7" transform="translate(-2210.626 -9825.554)"/><circle class="g" cx="7" cy="7" r="7" transform="translate(-1847.84 -9701.342)"/><circle class="g" cx="7" cy="7" r="7" transform="translate(-2164.38 -9724.415)"/><circle class="g" cx="7" cy="7" r="7" transform="translate(-2068.434 -9809.607)"/><circle class="g" cx="7" cy="7" r="7" transform="translate(-2280.916 -9892.883)"/><circle class="g" cx="7" cy="7" r="7" transform="translate(-2227.337 -9802.181)"/><circle class="g" cx="7" cy="7" r="7" transform="translate(-1854.951 -9744.413)"/><circle class="g" cx="7" cy="7" r="7" transform="translate(-2216.598 -9768.124)"/><circle class="g" cx="7" cy="7" r="7" transform="translate(-2159.535 -9803.203)"/><circle class="g" cx="7" cy="7" r="7" transform="translate(-2159.051 -9836.592)"/><circle class="g" cx="7" cy="7" r="7" transform="translate(-2112.268 -9729.762)"/><circle class="g" cx="7" cy="7" r="7" transform="translate(-2190.924 -9903.266)"/><circle class="g" cx="7" cy="7" r="7" transform="translate(-2150.764 -9785.28)"/><circle class="g" cx="7" cy="7" r="7" transform="translate(-1828.469 -9726.102)"/><circle class="g" cx="7" cy="7" r="7" transform="translate(-2154.946 -9785.116)"/><circle class="g" cx="7" cy="7" r="7" transform="translate(-2159.318 -9808.833)"/><circle class="g" cx="7" cy="7" r="7" transform="translate(-2176.213 -9781.529)"/><circle class="g" cx="7" cy="7" r="7" transform="translate(-2154.041 -9746.409)"/><circle class="g" cx="7" cy="7" r="7" transform="translate(-2112.594 -9786.1)"/><circle class="g" cx="7" cy="7" r="7" transform="translate(-2145.387 -9827.013)"/><circle class="g" cx="7" cy="7" r="7" transform="translate(-2223.596 -9684.584)"/><circle class="g" cx="7" cy="7" r="7" transform="translate(-2071.711 -9828.302)"/><circle class="g" cx="7" cy="7" r="7" transform="translate(-1840.087 -9714.906)"/><circle class="g" cx="7" cy="7" r="7" transform="translate(-2030.698 -9771.288)"/><circle class="g" cx="7" cy="7" r="7" transform="translate(-2078.899 -9797.114)"/><circle class="g" cx="7" cy="7" r="7" transform="translate(-1868.583 -9717.111)"/><circle class="g" cx="7" cy="7" r="7" transform="translate(-2057.183 -9817.39)"/><circle class="g" cx="7" cy="7" r="7" transform="translate(-2243.798 -9869.867)"/><circle class="g" cx="7" cy="7" r="7" transform="translate(-2202.947 -9711.647)"/><circle class="g" cx="7" cy="7" r="7" transform="translate(-2112.454 -9846.769)"/><circle class="g" cx="7" cy="7" r="7" transform="translate(-2079.314 -9783.162)"/><circle class="g" cx="7" cy="7" r="7" transform="translate(-2228.571 -9738.734)"/><circle class="g" cx="7" cy="7" r="7" transform="translate(-2145.331 -9887.532)"/><circle class="g" cx="7" cy="7" r="7" transform="translate(-2027.957 -9805.119)"/><circle class="g" cx="7" cy="7" r="7" transform="translate(-2105.71 -9775.147)"/><circle class="g" cx="7" cy="7" r="7" transform="translate(-2016.453 -9858.403)"/><circle class="g" cx="7" cy="7" r="7" transform="translate(-2067.52 -9907.514)"/><circle class="g" cx="7" cy="7" r="7" transform="translate(-2155.111 -9865.473)"/><circle class="g" cx="7" cy="7" r="7" transform="translate(-2156.473 -9877.08)"/><circle class="g" cx="7" cy="7" r="7" transform="translate(-2228.556 -9793.334)"/><circle class="g" cx="7" cy="7" r="7" transform="translate(-1856.169 -9752.867)"/><circle class="g" cx="7" cy="7" r="7" transform="translate(-2144.617 -9903.13)"/><circle class="g" cx="7" cy="7" r="7" transform="translate(-2235.363 -9686.689)"/></g><g transform="translate(-401 -44)"><circle class="h" cx="7" cy="7" r="7" transform="translate(1042.567 303.669) rotate(-51)"/><circle class="h" cx="7" cy="7" r="7" transform="translate(1000.527 301.119) rotate(-51)"/><circle class="h" cx="7" cy="7" r="7" transform="translate(990.766 257.231) rotate(-51)"/><circle class="h" cx="7" cy="7" r="7" transform="translate(1075.658 397.7) rotate(-51)"/><circle class="h" cx="7" cy="7" r="7" transform="translate(1127.877 414.11) rotate(-51)"/><circle class="h" cx="7" cy="7" r="7" transform="translate(1171.837 392.595) rotate(-51)"/><circle class="h" cx="7" cy="7" r="7" transform="translate(1070.617 338.274) rotate(-51)"/><circle class="h" cx="7" cy="7" r="7" transform="translate(1066.199 414.927) rotate(-51)"/><circle class="h" cx="7" cy="7" r="7" transform="translate(935.259 323.919) rotate(-51)"/><circle class="h" cx="7" cy="7" r="7" transform="translate(857.78 328.193) rotate(-51)"/><circle class="h" cx="7" cy="7" r="7" transform="translate(1129.141 429.746) rotate(-51)"/><circle class="h" cx="7" cy="7" r="7" transform="translate(976.588 324.121) rotate(-51)"/><circle class="h" cx="7" cy="7" r="7" transform="translate(1120.914 447.726) rotate(-51)"/><circle class="h" cx="7" cy="7" r="7" transform="translate(984.352 354.214) rotate(-51)"/><circle class="h" cx="7" cy="7" r="7" transform="translate(850.729 337.44) rotate(-51)"/><circle class="h" cx="7" cy="7" r="7" transform="translate(1098.098 391.254) rotate(-51)"/><circle class="h" cx="7" cy="7" r="7" transform="translate(1007.336 293.498) rotate(-51)"/><circle class="h" cx="7" cy="7" r="7" transform="translate(916.627 337.783) rotate(-51)"/><circle class="h" cx="7" cy="7" r="7" transform="translate(945.353 340.534) rotate(-51)"/><circle class="h" cx="7" cy="7" r="7" transform="translate(1071.029 436.168) rotate(-51)"/><circle class="h" cx="7" cy="7" r="7" transform="translate(984.122 318.583) rotate(-51)"/><circle class="h" cx="7" cy="7" r="7" transform="translate(1162.475 404.763) rotate(-51)"/><circle class="h" cx="7" cy="7" r="7" transform="translate(994.244 285.445) rotate(-51)"/><circle class="h" cx="7" cy="7" r="7" transform="translate(996.43 347.906) rotate(-51)"/><circle class="h" cx="7" cy="7" r="7" transform="translate(1089.248 318.611) rotate(-51)"/><circle class="h" cx="7" cy="7" r="7" transform="translate(1099.638 347.427) rotate(-51)"/><circle class="h" cx="7" cy="7" r="7" transform="translate(936.636 317.852) rotate(-51)"/><circle class="h" cx="7" cy="7" r="7" transform="translate(1111.337 438.257) rotate(-51)"/><circle class="h" cx="7" cy="7" r="7" transform="translate(1069.757 379.34) rotate(-51)"/><circle class="h" cx="7" cy="7" r="7" transform="translate(1097.41 400.633) rotate(-51)"/><circle class="h" cx="7" cy="7" r="7" transform="translate(1061.307 349.554) rotate(-51)"/><circle class="h" cx="7" cy="7" r="7" transform="translate(1174.563 388.602) rotate(-51)"/><circle class="h" cx="7" cy="7" r="7" transform="translate(1033.547 335.787) rotate(-51)"/><circle class="h" cx="7" cy="7" r="7" transform="translate(1097.627 442.681) rotate(-51)"/><circle class="h" cx="7" cy="7" r="7" transform="translate(1081.202 274.736) rotate(-51)"/><circle class="h" cx="7" cy="7" r="7" transform="translate(1018.244 278.449) rotate(-51)"/><circle class="h" cx="7" cy="7" r="7" transform="translate(1098.038 254.68) rotate(-51)"/><circle class="h" cx="7" cy="7" r="7" transform="translate(1058.371 447.416) rotate(-51)"/><circle class="h" cx="7" cy="7" r="7" transform="translate(1023.617 267.417) rotate(-51)"/><circle class="h" cx="7" cy="7" r="7" transform="translate(1095.666 419.805) rotate(-51)"/><circle class="h" cx="7" cy="7" r="7" transform="translate(1055.327 436.373) rotate(-51)"/><circle class="h" cx="7" cy="7" r="7" transform="translate(1030.457 339.099) rotate(-51)"/><circle class="h" cx="7" cy="7" r="7" transform="translate(1055.786 307.633) rotate(-51)"/><circle class="h" cx="7" cy="7" r="7" transform="translate(1020.54 361.482) rotate(-51)"/><circle class="h" cx="7" cy="7" r="7" transform="translate(1129.845 446.764) rotate(-51)"/><circle class="h" cx="7" cy="7" r="7" transform="translate(1029.226 330.546) rotate(-51)"/><circle class="h" cx="7" cy="7" r="7" transform="translate(1133.555 405.043) rotate(-51)"/><circle class="h" cx="7" cy="7" r="7" transform="translate(913.96 358.767) rotate(-51)"/><circle class="h" cx="7" cy="7" r="7" transform="translate(1045.971 364.424) rotate(-51)"/></g><g transform="translate(-12 -4)"><circle class="g" cx="7" cy="7" r="7" transform="translate(1042.567 303.669) rotate(-51)"/><circle class="g" cx="7" cy="7" r="7" transform="translate(1000.527 301.119) rotate(-51)"/><circle class="g" cx="7" cy="7" r="7" transform="translate(990.766 257.231) rotate(-51)"/><circle class="g" cx="7" cy="7" r="7" transform="translate(1075.658 397.7) rotate(-51)"/><circle class="g" cx="7" cy="7" r="7" transform="translate(1127.877 414.11) rotate(-51)"/><circle class="g" cx="7" cy="7" r="7" transform="translate(1171.837 392.595) rotate(-51)"/><circle class="g" cx="7" cy="7" r="7" transform="translate(1070.617 338.274) rotate(-51)"/><circle class="g" cx="7" cy="7" r="7" transform="translate(1066.199 414.927) rotate(-51)"/><circle class="g" cx="7" cy="7" r="7" transform="translate(935.259 323.919) rotate(-51)"/><circle class="g" cx="7" cy="7" r="7" transform="translate(857.78 328.193) rotate(-51)"/><circle class="g" cx="7" cy="7" r="7" transform="translate(1129.141 429.746) rotate(-51)"/><circle class="g" cx="7" cy="7" r="7" transform="translate(976.588 324.121) rotate(-51)"/><circle class="g" cx="7" cy="7" r="7" transform="translate(1120.914 447.726) rotate(-51)"/><circle class="g" cx="7" cy="7" r="7" transform="translate(984.352 354.214) rotate(-51)"/><circle class="g" cx="7" cy="7" r="7" transform="translate(850.729 337.44) rotate(-51)"/><circle class="g" cx="7" cy="7" r="7" transform="translate(1098.098 391.254) rotate(-51)"/><circle class="g" cx="7" cy="7" r="7" transform="translate(1007.336 293.498) rotate(-51)"/><circle class="g" cx="7" cy="7" r="7" transform="translate(916.627 337.783) rotate(-51)"/><circle class="g" cx="7" cy="7" r="7" transform="translate(945.353 340.534) rotate(-51)"/><circle class="g" cx="7" cy="7" r="7" transform="translate(1071.029 436.168) rotate(-51)"/><circle class="g" cx="7" cy="7" r="7" transform="translate(984.122 318.583) rotate(-51)"/><circle class="g" cx="7" cy="7" r="7" transform="translate(1162.475 404.763) rotate(-51)"/><circle class="g" cx="7" cy="7" r="7" transform="translate(994.244 285.445) rotate(-51)"/><circle class="g" cx="7" cy="7" r="7" transform="translate(996.43 347.906) rotate(-51)"/><circle class="g" cx="7" cy="7" r="7" transform="translate(1089.248 318.611) rotate(-51)"/><circle class="g" cx="7" cy="7" r="7" transform="translate(1099.638 347.427) rotate(-51)"/><circle class="g" cx="7" cy="7" r="7" transform="translate(936.636 317.852) rotate(-51)"/><circle class="g" cx="7" cy="7" r="7" transform="translate(1111.337 438.257) rotate(-51)"/><circle class="g" cx="7" cy="7" r="7" transform="translate(1069.757 379.34) rotate(-51)"/><circle class="g" cx="7" cy="7" r="7" transform="translate(1097.41 400.633) rotate(-51)"/><circle class="g" cx="7" cy="7" r="7" transform="translate(1061.307 349.554) rotate(-51)"/><circle class="g" cx="7" cy="7" r="7" transform="translate(1174.563 388.602) rotate(-51)"/><circle class="g" cx="7" cy="7" r="7" transform="translate(1033.547 335.787) rotate(-51)"/><circle class="g" cx="7" cy="7" r="7" transform="translate(1097.627 442.681) rotate(-51)"/><circle class="g" cx="7" cy="7" r="7" transform="translate(1081.202 274.736) rotate(-51)"/><circle class="g" cx="7" cy="7" r="7" transform="translate(1018.244 278.449) rotate(-51)"/><circle class="g" cx="7" cy="7" r="7" transform="translate(1098.038 254.68) rotate(-51)"/><circle class="g" cx="7" cy="7" r="7" transform="translate(1058.371 447.416) rotate(-51)"/><circle class="g" cx="7" cy="7" r="7" transform="translate(1023.617 267.417) rotate(-51)"/><circle class="g" cx="7" cy="7" r="7" transform="translate(1095.666 419.805) rotate(-51)"/><circle class="g" cx="7" cy="7" r="7" transform="translate(1055.327 436.373) rotate(-51)"/><circle class="g" cx="7" cy="7" r="7" transform="translate(1030.457 339.099) rotate(-51)"/><circle class="g" cx="7" cy="7" r="7" transform="translate(1055.786 307.633) rotate(-51)"/><circle class="g" cx="7" cy="7" r="7" transform="translate(1020.54 361.482) rotate(-51)"/><circle class="g" cx="7" cy="7" r="7" transform="translate(1129.845 446.764) rotate(-51)"/><circle class="g" cx="7" cy="7" r="7" transform="translate(1029.226 330.546) rotate(-51)"/><circle class="g" cx="7" cy="7" r="7" transform="translate(1133.555 405.043) rotate(-51)"/><circle class="g" cx="7" cy="7" r="7" transform="translate(913.96 358.767) rotate(-51)"/><circle class="g" cx="7" cy="7" r="7" transform="translate(1045.971 364.424) rotate(-51)"/></g><text class="c" transform="translate(466 677)"><tspan x="-15.313" y="0">-5</tspan></text><text class="c" transform="translate(566 677)"><tspan x="-8.883" y="0">0</tspan></text><text class="c" transform="translate(666 677)"><tspan x="-8.883" y="0">5</tspan></text><text class="c" transform="translate(766 677)"><tspan x="-15.32" y="0">10</tspan></text><text class="c" transform="translate(866 677)"><tspan x="-15.32" y="0">15</tspan></text><text class="c" transform="translate(966 677)"><tspan x="-17.766" y="0">20</tspan></text><text class="c" transform="translate(1066 677)"><tspan x="-17.766" y="0">25</tspan></text><text class="c" transform="translate(1166 677)"><tspan x="-17.766" y="0">30</tspan></text><text class="c" transform="translate(1266 677)"><tspan x="-17.766" y="0">35</tspan></text><text class="c" transform="translate(285 617)"><tspan x="0" y="0">-10</tspan></text><text class="c" transform="translate(285 517)"><tspan x="0" y="0">-5</tspan></text><text class="c" transform="translate(294 417)"><tspan x="-8.883" y="0">0</tspan></text><text class="c" transform="translate(294 317)"><tspan x="-8.883" y="0">5</tspan></text><text class="c" transform="translate(285 217)"><tspan x="0" y="0">10</tspan></text></g></svg>