<svg xmlns="http://www.w3.org/2000/svg" width="65.814" height="75.939" viewBox="0 0 65.814 75.939"><defs><style>.a{fill:#d7dbe6;}</style></defs><path class="a" d="M68.017,18.454H66.751V10.86a3.8,3.8,0,0,0-3.8-3.8H61.689V5.8a3.8,3.8,0,0,0-3.8-3.8H9.8A3.8,3.8,0,0,0,6,5.8V69.08a3.8,3.8,0,0,0,3.8,3.8h1.266v1.266a3.8,3.8,0,0,0,3.8,3.8H62.955a3.8,3.8,0,0,0,3.8-3.8V51.361h1.266a3.8,3.8,0,0,0,3.8-3.8V22.25A3.8,3.8,0,0,0,68.017,18.454Zm-5.063-8.86A1.266,1.266,0,0,1,64.22,10.86v7.594H61.689V9.594ZM16.125,4.531h2.531V7.949l-.213-.319a1.315,1.315,0,0,0-2.106,0l-.213.319ZM8.531,69.08V5.8A1.266,1.266,0,0,1,9.8,4.531h3.8v7.594a1.266,1.266,0,0,0,2.319.7l1.478-2.221,1.478,2.217a1.266,1.266,0,0,0,2.319-.7V4.531h36.7A1.266,1.266,0,0,1,59.158,5.8V18.454H19.922a3.8,3.8,0,0,0-3.8,3.8V47.564a3.8,3.8,0,0,0,3.8,3.8H59.158V69.08a1.266,1.266,0,0,1-1.266,1.266H9.8A1.266,1.266,0,0,1,8.531,69.08ZM64.22,74.142a1.266,1.266,0,0,1-1.266,1.266H14.86a1.266,1.266,0,0,1-1.266-1.266V72.877h44.3a3.8,3.8,0,0,0,3.8-3.8V51.361H64.22Zm5.063-26.579a1.266,1.266,0,0,1-1.266,1.266H19.922a1.266,1.266,0,0,1-1.266-1.266V22.25a1.266,1.266,0,0,1,1.266-1.266H68.017a1.266,1.266,0,0,1,1.266,1.266Z" transform="translate(-6 -2)"/><path class="a" d="M28.328,22H23.266A1.266,1.266,0,0,0,22,23.266V35.922a1.266,1.266,0,0,0,1.266,1.266h5.063a3.8,3.8,0,0,0,3.8-3.8V25.8a3.8,3.8,0,0,0-3.8-3.8Zm1.266,11.391a1.266,1.266,0,0,1-1.266,1.266h-3.8V24.531h3.8A1.266,1.266,0,0,1,29.594,25.8Z" transform="translate(-1.75 3.313)"/><path class="a" d="M38.328,22H35.8A3.8,3.8,0,0,0,32,25.8v7.594a3.8,3.8,0,0,0,3.8,3.8h2.531a3.8,3.8,0,0,0,3.8-3.8V25.8a3.8,3.8,0,0,0-3.8-3.8Zm1.266,11.391a1.266,1.266,0,0,1-1.266,1.266H35.8a1.266,1.266,0,0,1-1.266-1.266V25.8A1.266,1.266,0,0,1,35.8,24.531h2.531A1.266,1.266,0,0,1,39.594,25.8Z" transform="translate(0.907 3.313)"/><path class="a" d="M45.8,24.531h2.531A1.266,1.266,0,0,1,49.594,25.8h2.531a3.8,3.8,0,0,0-3.8-3.8H45.8A3.8,3.8,0,0,0,42,25.8v7.594a3.8,3.8,0,0,0,3.8,3.8h2.531a3.8,3.8,0,0,0,3.8-3.8H49.594a1.266,1.266,0,0,1-1.266,1.266H45.8a1.266,1.266,0,0,1-1.266-1.266V25.8A1.266,1.266,0,0,1,45.8,24.531Z" transform="translate(3.564 3.313)"/></svg>