<svg xmlns="http://www.w3.org/2000/svg" width="20" height="26" viewBox="0 0 20 26"><defs><style>.a{fill:#2590e5;}.b{fill:#fff;font-size:5px;font-family:SegoeUI-Bold, Segoe UI;font-weight:700;}</style></defs><g transform="translate(-445.334 -301.384)"><g transform="translate(445.334 301.384)"><path class="a" d="M119.732,298.065c0-.409-.284-.653-.784-.653a1.735,1.735,0,0,0-.415.039v1.312a1.572,1.572,0,0,0,.336.026C119.4,298.789,119.732,298.519,119.732,298.065Z" transform="translate(-114.777 -281.323)"/><path class="a" d="M194.259,297.681a2.074,2.074,0,0,0-.455.039v2.9a1.818,1.818,0,0,0,.349.02,1.377,1.377,0,0,0,1.5-1.555A1.274,1.274,0,0,0,194.259,297.681Z" transform="translate(-186.214 -281.511)"/><path class="a" d="M58.6,0H48.73a2.7,2.7,0,0,0-2.615,2.767V13H45.86a1.085,1.085,0,0,0-1.054,1.115v6.763a1.085,1.085,0,0,0,1.054,1.115h.255v1.24A2.7,2.7,0,0,0,48.73,26H62.192a2.7,2.7,0,0,0,2.614-2.767V6.549Zm3.6,24.305H48.73a1.045,1.045,0,0,1-1.013-1.073v-1.24h12.55a1.085,1.085,0,0,0,1.054-1.115V14.115A1.085,1.085,0,0,0,60.267,13H47.717V2.767A1.045,1.045,0,0,1,48.73,1.7L58,1.686V5.312A1.869,1.869,0,0,0,59.81,7.231l3.356-.01L63.2,23.233A1.044,1.044,0,0,1,62.192,24.305Z" transform="translate(-44.806)"/></g><text class="b" transform="translate(453.985 321.012)"><tspan x="-5.299" y="0">DOC</tspan></text></g></svg>