<svg xmlns="http://www.w3.org/2000/svg" width="31" height="31" viewBox="0 0 31 31">
  <g id="edit_icon" data-name="edit icon" transform="translate(-500 -263)">
    <g id="_1159633" data-name="1159633" transform="translate(506 268.74)">
      <path id="Path_2284" data-name="Path 2284" d="M17.974,49.444a.485.485,0,0,0-.485.485v4.306a1.456,1.456,0,0,1-1.455,1.455H2.425A1.456,1.456,0,0,1,.97,54.236V41.6a1.457,1.457,0,0,1,1.455-1.455H6.731a.485.485,0,1,0,0-.97H2.425A2.428,2.428,0,0,0,0,41.6V54.236a2.428,2.428,0,0,0,2.425,2.425H16.034a2.428,2.428,0,0,0,2.425-2.425V49.929a.485.485,0,0,0-.485-.485Zm0,0" transform="translate(0 -37.024)" fill="#6b7280"/>
      <path id="Path_2285" data-name="Path 2285" d="M121.209.9a2.182,2.182,0,0,0-3.087,0L109.47,9.553a.485.485,0,0,0-.124.214l-1.138,4.108a.485.485,0,0,0,.6.6l4.108-1.138a.485.485,0,0,0,.214-.124l8.652-8.653a2.185,2.185,0,0,0,0-3.087ZM110.527,9.868l7.082-7.082,2.284,2.284-7.082,7.082Zm-.456.915,1.825,1.825-2.524.7ZM121.093,3.87l-.514.514L118.294,2.1l.515-.514a1.212,1.212,0,0,1,1.715,0l.569.569A1.214,1.214,0,0,1,121.093,3.87Zm0,0" transform="translate(-102.943 0)" fill="#6b7280"/>
    </g>
    <rect id="Rectangle_4024" data-name="Rectangle 4024" width="31" height="31" transform="translate(500 263)" fill="none"/>
  </g>
</svg>
