<svg xmlns="http://www.w3.org/2000/svg" width="32" height="20" viewBox="0 0 32 20"><defs><style>.a{fill:#fff;}</style></defs><g transform="translate(0 -92.835)"><g transform="translate(0 92.835)"><path class="a" d="M31.8,102.225c-.286-.383-7.1-9.39-15.8-9.39S.489,101.841.2,102.224a1.019,1.019,0,0,0,0,1.221c.286.383,7.1,9.39,15.8,9.39s15.511-9.006,15.8-9.389A1.018,1.018,0,0,0,31.8,102.225ZM16,110.766c-6.408,0-11.958-5.978-13.6-7.932C4.04,100.878,9.578,94.9,16,94.9s11.957,5.977,13.6,7.932C27.96,104.792,22.422,110.766,16,110.766Z" transform="translate(0 -92.835)"/></g><g transform="translate(9.546 96.381)"><g transform="translate(0 0)"><path class="a" d="M161.176,154.725a6.454,6.454,0,1,0,6.454,6.454A6.461,6.461,0,0,0,161.176,154.725Zm0,10.756a4.3,4.3,0,1,1,4.3-4.3A4.307,4.307,0,0,1,161.176,165.481Z" transform="translate(-154.722 -154.725)"/></g></g></g></svg>