<svg xmlns="http://www.w3.org/2000/svg" width="20" height="20" viewBox="0 0 20 20"><defs><style>.a{fill:#5e6167;}</style></defs><path class="a" d="M19.566,10.111a1.533,1.533,0,0,0,.363-1.534,1.444,1.444,0,0,0-1.158-1.019l-4.843-.734a.635.635,0,0,1-.477-.362l-2.165-4.58a1.408,1.408,0,0,0-2.572,0L6.549,6.461a.636.636,0,0,1-.477.362l-4.843.735A1.443,1.443,0,0,0,.071,8.576a1.533,1.533,0,0,0,.363,1.534l3.5,3.565a.68.68,0,0,1,.183.585l-.827,5.034a1.518,1.518,0,0,0,.57,1.464,1.373,1.373,0,0,0,1.511.114L9.705,18.5a.611.611,0,0,1,.59,0l4.331,2.377a1.376,1.376,0,0,0,1.511-.114,1.518,1.518,0,0,0,.57-1.464l-.827-5.034a.68.68,0,0,1,.183-.585ZM15.091,14.4l.827,5.034a.663.663,0,0,1-.252.647.6.6,0,0,1-.667.051l-4.331-2.377a1.382,1.382,0,0,0-1.335,0L5,20.133a.6.6,0,0,1-.667-.051.663.663,0,0,1-.252-.647L4.91,14.4A1.538,1.538,0,0,0,4.5,13.078L.993,9.512a.668.668,0,0,1-.16-.678.629.629,0,0,1,.511-.45L6.186,7.65a1.438,1.438,0,0,0,1.08-.819l2.165-4.58a.622.622,0,0,1,1.136,0l2.165,4.58a1.438,1.438,0,0,0,1.08.819l4.843.734a.629.629,0,0,1,.511.45.668.668,0,0,1-.16.678l-3.5,3.565A1.538,1.538,0,0,0,15.091,14.4Z" transform="translate(0 -1.047)"/></svg>