<svg xmlns="http://www.w3.org/2000/svg" width="31" height="31" viewBox="0 0 31 31"><defs><style>.a{fill:none;}.b{fill:#6b7280;}</style></defs><g transform="translate(-35 -98)"><rect class="a" width="31" height="31" transform="translate(35 98)"/><path class="b" d="M21.437,10.057a.652.652,0,0,0-.589-.374H.651a.652.652,0,0,0-.5,1.066l7.764,9.417v8.683a.652.652,0,0,0,.941.584l4.362-2.162a.652.652,0,0,0,.362-.583l.009-6.522,7.764-9.417A.651.651,0,0,0,21.437,10.057Zm-9.005,9.461a.651.651,0,0,0-.149.414l-.008,6.351L9.216,27.8V19.932a.651.651,0,0,0-.149-.415L2.033,10.986H19.466Z" transform="translate(40 94.268)"/></g></svg>