<svg id="green" xmlns="http://www.w3.org/2000/svg" width="21" height="21" viewBox="0 0 21 21">
  <g id="_x31__30_">
    <g id="Group_3135" data-name="Group 3135">
      <path id="Path_2273" data-name="Path 2273" d="M14.455,5.951a.657.657,0,0,0-.9.24l-4.2,7.269L7.014,11.295a.656.656,0,1,0-.957.9l3,2.767a.656.656,0,0,0,.927.03c.08-.075,4.712-8.142,4.712-8.142A.658.658,0,0,0,14.455,5.951ZM10.5,0A10.5,10.5,0,1,0,21,10.5,10.5,10.5,0,0,0,10.5,0Zm0,19.688A9.188,9.188,0,1,1,19.688,10.5,9.187,9.187,0,0,1,10.5,19.688Z" fill="#39cc4d"/>
    </g>
  </g>
</svg>
