<svg xmlns="http://www.w3.org/2000/svg" width="24" height="24" viewBox="0 0 24 24"><defs><style>.a{fill:#d7dbe6;}.b{fill:none;}</style></defs><g transform="translate(-0.092 0.066)"><path class="a" d="M22.791-39c-4.616,0-8.557,3.333-10.154,7.385,1.6,4.053,5.539,6.462,10.154,6.462s8.557-2.409,10.154-6.462C31.349-35.667,27.407-39,22.791-39Zm0,12a4.617,4.617,0,0,1-4.616-4.616,4.617,4.617,0,0,1,4.616-4.616,4.617,4.617,0,0,1,4.616,4.616A4.617,4.617,0,0,1,22.791-27Zm0-7.385a2.766,2.766,0,0,0-2.769,2.769,2.766,2.766,0,0,0,2.769,2.769,2.766,2.766,0,0,0,2.769-2.769A2.766,2.766,0,0,0,22.791-34.384Z" transform="translate(-10.624 44.024)"/><rect class="b" width="24" height="24" transform="translate(0.092 -0.066)"/></g></svg>