<svg xmlns="http://www.w3.org/2000/svg" width="24.318" height="16.867" viewBox="0 0 24.318 16.867">
  <g id="menu_05" data-name="menu 05" transform="translate(0 -78.439)">
    <g id="Group_2" data-name="Group 2" transform="translate(0 85.89)">
      <g id="Group_1" data-name="Group 1" transform="translate(0 0)">
        <path id="Path_1" data-name="Path 1" d="M23.335,235.318H.982a.982.982,0,1,0,0,1.965H23.335a.982.982,0,1,0,0-1.965Z" transform="translate(0 -235.318)" fill="#fff"/>
      </g>
    </g>
    <g id="Group_4" data-name="Group 4" transform="translate(0 78.439)">
      <g id="Group_3" data-name="Group 3" transform="translate(0 0)">
        <path id="Path_2" data-name="Path 2" d="M23.335,78.439H.982a.982.982,0,1,0,0,1.965H23.335a.982.982,0,1,0,0-1.965Z" transform="translate(0 -78.439)" fill="#fff"/>
      </g>
    </g>
    <g id="Group_6" data-name="Group 6" transform="translate(0 93.341)">
      <g id="Group_5" data-name="Group 5">
        <path id="Path_3" data-name="Path 3" d="M23.335,392.2H.982a.982.982,0,0,0,0,1.965H23.335a.982.982,0,0,0,0-1.965Z" transform="translate(0 -392.197)" fill="#fff"/>
      </g>
    </g>
  </g>
</svg>
