<svg xmlns="http://www.w3.org/2000/svg" width="20" height="16" viewBox="0 0 20 16"><defs><style>.a{fill:#5e6167;}</style></defs><path class="a" d="M19.163,10.724H18V8.678a.9.9,0,0,0-.911-.892H8.838L7.172,5.5H.911A.9.9,0,0,0,0,6.392V20.657H0a.819.819,0,0,0,.174.514.855.855,0,0,0,.679.328h14.92a.844.844,0,0,0,.817-.592L20,11.753v-.058A.881.881,0,0,0,19.163,10.724ZM.667,6.392a.242.242,0,0,1,.244-.239H6.828L8.495,8.439h8.594a.242.242,0,0,1,.244.239v2.047H4.244a.853.853,0,0,0-.142.012.834.834,0,0,0-.674.58L.667,18.692Zm15.29,14.319a.188.188,0,0,1-.182.136H.855a.185.185,0,0,1-.149-.072.174.174,0,0,1-.041-.133l3.4-9.128a.188.188,0,0,1,.182-.136h14.92c.127,0,.159.178.167.267Z" transform="translate(0 -5.5)"/></svg>