<svg xmlns="http://www.w3.org/2000/svg" width="31" height="31" viewBox="0 0 31 31">
  <g id="Group_3317" data-name="Group 3317" transform="translate(-658 -263)">
    <rect id="Rectangle_4024" data-name="Rectangle 4024" width="31" height="31" transform="translate(658 263)" fill="none"/>
    <path id="Union_33" data-name="Union 33" d="M-4236.969,10322.991a3.262,3.262,0,0,1-3.031-3.324,3.264,3.264,0,0,1,3.181-3.184,3.259,3.259,0,0,1,3.34,3.013h2.135v-6.682h-2.14a3.26,3.26,0,0,1-3.407,2.938,3.263,3.263,0,0,1-3.106-3.254,3.26,3.26,0,0,1,3.106-3.254,3.261,3.261,0,0,1,3.407,2.938h2.14v-6.685h-2.135a3.261,3.261,0,0,1-3.337,3.016,3.259,3.259,0,0,1-3.179-3.182,3.257,3.257,0,0,1,3.029-3.323,3.262,3.262,0,0,1,3.474,2.857h2.464a.316.316,0,0,1,.319.315v7h2.083l-.818-.816a.316.316,0,0,1,0-.448.317.317,0,0,1,.448,0l1.36,1.357a.316.316,0,0,1,0,.448l-1.36,1.357a.32.32,0,0,1-.448,0,.318.318,0,0,1,0-.45l.818-.816h-2.083v7a.318.318,0,0,1-.319.316h-2.464a3.265,3.265,0,0,1-3.24,2.868C-4236.811,10323-4236.89,10323-4236.969,10322.991Zm-2.394-3.252a2.628,2.628,0,0,0,2.629,2.625,2.628,2.628,0,0,0,2.63-2.625,2.629,2.629,0,0,0-2.63-2.624A2.625,2.625,0,0,0-4239.363,10319.739Zm0-7.241a2.626,2.626,0,0,0,2.629,2.625,2.626,2.626,0,0,0,2.63-2.625,2.632,2.632,0,0,0-2.63-2.624A2.625,2.625,0,0,0-4239.363,10312.5Zm0-7.241a2.626,2.626,0,0,0,2.629,2.625,2.626,2.626,0,0,0,2.63-2.625,2.632,2.632,0,0,0-2.63-2.624A2.627,2.627,0,0,0-4239.363,10305.257Zm13.651,7.241a4.391,4.391,0,0,1,4.4-4.378,4.394,4.394,0,0,1,4.4,4.378,4.394,4.394,0,0,1-4.4,4.379A4.392,4.392,0,0,1-4225.712,10312.5Zm.635,0a3.76,3.76,0,0,0,3.762,3.747,3.761,3.761,0,0,0,3.764-3.747,3.76,3.76,0,0,0-3.764-3.746A3.76,3.76,0,0,0-4225.078,10312.5Z" transform="translate(4902 -10034)" fill="#6b7280" stroke="#6b7280" stroke-width="0.5"/>
  </g>
</svg>
