<svg xmlns="http://www.w3.org/2000/svg" width="37" height="37" viewBox="0 0 37 37"><defs><style>.a{fill:#05070c;}</style></defs><path class="a" d="M18.5,37a18.644,18.644,0,0,1-3.729-.376A18.4,18.4,0,0,1,8.156,33.84a18.555,18.555,0,0,1-6.7-8.14A18.385,18.385,0,0,1,.375,22.228a18.7,18.7,0,0,1,0-7.456A18.406,18.406,0,0,1,3.159,8.157a18.551,18.551,0,0,1,8.139-6.7A18.431,18.431,0,0,1,14.771.376a18.683,18.683,0,0,1,7.458,0A18.393,18.393,0,0,1,28.843,3.16a18.552,18.552,0,0,1,6.7,8.14,18.382,18.382,0,0,1,1.078,3.473,18.673,18.673,0,0,1,0,7.457,18.405,18.405,0,0,1-2.784,6.615,18.558,18.558,0,0,1-8.139,6.7,18.419,18.419,0,0,1-3.473,1.078A18.642,18.642,0,0,1,18.5,37ZM16.191,13.835V25.419h3.477V19.155a2.584,2.584,0,0,1,.8-1.8,2.82,2.82,0,0,1,.868-.589,2.672,2.672,0,0,1,1.068-.223,1.876,1.876,0,0,1,.937.222,1.574,1.574,0,0,1,.58.585,3.543,3.543,0,0,1,.377,1.776v6.3h3.464V18.864c0-2.033-.433-3.514-1.288-4.4a3.389,3.389,0,0,0-2.55-.989,5.2,5.2,0,0,0-4.252,1.969V13.835Zm-5.767.038V25.419h3.465V13.873ZM12.141,9.25a1.734,1.734,0,1,0,1.734,1.734A1.736,1.736,0,0,0,12.141,9.25Z"/></svg>