<svg xmlns="http://www.w3.org/2000/svg" width="167.204" height="37.324" viewBox="0 0 167.204 37.324"><defs><style>.a,.b{fill:#fefefe;}.b{fill-rule:evenodd;}</style></defs><g transform="translate(0 0)"><path class="a" d="M7960.368,2943.289h-17.353a5.923,5.923,0,0,1-2.377-.474,6.24,6.24,0,0,1-1.932-1.3,6.029,6.029,0,0,1-1.3-1.932,6.154,6.154,0,0,1,0-4.737,6.123,6.123,0,0,1,3.233-3.239,6.025,6.025,0,0,1,2.377-.474h12.13v3.476h-12.13a2.4,2.4,0,0,0-1.018.214,2.694,2.694,0,0,0-.833.567,2.724,2.724,0,0,0-.561.827,2.585,2.585,0,0,0-.2,1,2.506,2.506,0,0,0,.2,1.006,2.716,2.716,0,0,0,.561.827,2.569,2.569,0,0,0,.833.555,2.479,2.479,0,0,0,1.018.2h13.876v-9.538a2.369,2.369,0,0,0-.214-1,2.659,2.659,0,0,0-.567-.827,2.868,2.868,0,0,0-.827-.573,2.488,2.488,0,0,0-1-.208H7940.4v-3.459h13.882a5.9,5.9,0,0,1,2.372.474,6.345,6.345,0,0,1,1.932,1.3,5.972,5.972,0,0,1,1.3,1.926,5.9,5.9,0,0,1,.48,2.372v13.014Zm9.186-23.42a2.507,2.507,0,0,1-.2,1.007,2.722,2.722,0,0,1-.562.827,2.567,2.567,0,0,1-.833.555,2.439,2.439,0,0,1-1,.2,2.477,2.477,0,0,1-1.013-.2,2.559,2.559,0,0,1-.833-.555,2.721,2.721,0,0,1-.561-.827,2.505,2.505,0,0,1-.2-1.007,2.582,2.582,0,0,1,.2-1,2.679,2.679,0,0,1,1.394-1.394,2.393,2.393,0,0,1,1.013-.214,2.357,2.357,0,0,1,1,.214,2.7,2.7,0,0,1,.833.567,2.728,2.728,0,0,1,.562.827A2.581,2.581,0,0,1,7969.554,2919.869Zm-.867,23.42h-3.471v-19.082h3.471Z" transform="translate(-7802.35 -2912.658)"/><path class="a" d="M4740.379,3156.1a5.918,5.918,0,0,1-.474,2.366,6.017,6.017,0,0,1-3.228,3.228,5.922,5.922,0,0,1-2.365.474h-14.761v-3.477h14.761a2.459,2.459,0,0,0,1-.2,2.562,2.562,0,0,0,1.388-1.382,2.4,2.4,0,0,0,.2-1.006,2.472,2.472,0,0,0-.2-1,2.58,2.58,0,0,0-.555-.827,2.694,2.694,0,0,0-.833-.567,2.376,2.376,0,0,0-1-.214h-9.556a5.116,5.116,0,0,1-2.036-.4,5.174,5.174,0,0,1-2.759-2.765,5.24,5.24,0,0,1,0-4.067,5.174,5.174,0,0,1,2.759-2.765,5.22,5.22,0,0,1,2.036-.4h13.894v3.459h-13.894a1.692,1.692,0,0,0-1.232.5,1.714,1.714,0,0,0-.5,1.25,1.7,1.7,0,0,0,1.729,1.723h9.556a6.017,6.017,0,0,1,4.3,1.782,6.225,6.225,0,0,1,1.3,1.932,5.9,5.9,0,0,1,.474,2.372Zm25.78-6.947a6.012,6.012,0,0,1-.474,2.372,6.067,6.067,0,0,1-3.234,3.222,6.019,6.019,0,0,1-2.36.474h-13.3a6.519,6.519,0,0,0,.931,1.406,5.952,5.952,0,0,0,1.255,1.1,5.79,5.79,0,0,0,1.515.711,5.66,5.66,0,0,0,1.718.254h11.355v3.477h-11.355a9.476,9.476,0,0,1-6.7-2.823,9.716,9.716,0,0,1-2.025-3.025,9.515,9.515,0,0,1,0-7.387,9.716,9.716,0,0,1,2.025-3.025,9.481,9.481,0,0,1,6.7-2.823h7.884a5.907,5.907,0,0,1,2.36.475,6.06,6.06,0,0,1,3.234,3.222A5.99,5.99,0,0,1,4766.159,3149.148Zm-6.067,2.609a2.573,2.573,0,0,0,1-.2,2.612,2.612,0,0,0,.827-.561,2.731,2.731,0,0,0,.562-.827,2.623,2.623,0,0,0,.2-1.018,2.56,2.56,0,0,0-.2-1,2.667,2.667,0,0,0-.562-.827,2.856,2.856,0,0,0-.827-.573,2.485,2.485,0,0,0-1-.208h-7.884a5.711,5.711,0,0,0-2.157.4,6.167,6.167,0,0,0-1.8,1.111,6.158,6.158,0,0,0-1.972,3.7h13.813Zm12.928,10.406h-3.471v-19.082h13.014a9.115,9.115,0,0,1,3.69.758,9.573,9.573,0,0,1,3.02,2.047,9.677,9.677,0,0,1,2.03,3.031,9.31,9.31,0,0,1,.746,3.708v9.538h-3.471v-9.538a5.987,5.987,0,0,0-.474-2.36,6.146,6.146,0,0,0-3.2-3.228,6,6,0,0,0-2.343-.5h-9.543Zm43.636-6.067a5.917,5.917,0,0,1-.475,2.366,6.017,6.017,0,0,1-3.228,3.228,5.925,5.925,0,0,1-2.366.474h-14.761v-3.477h14.761a2.459,2.459,0,0,0,1-.2,2.567,2.567,0,0,0,.833-.555,2.611,2.611,0,0,0,.555-.828,2.4,2.4,0,0,0,.2-1.006,2.481,2.481,0,0,0-.2-1,2.6,2.6,0,0,0-.555-.827,2.689,2.689,0,0,0-.833-.567,2.376,2.376,0,0,0-1-.214h-9.555a5.114,5.114,0,0,1-2.036-.4,5.173,5.173,0,0,1-2.759-2.765,5.239,5.239,0,0,1,0-4.066,5.17,5.17,0,0,1,2.759-2.765,5.218,5.218,0,0,1,2.036-.4h13.894v3.459h-13.894a1.693,1.693,0,0,0-1.232.5,1.713,1.713,0,0,0-.5,1.25,1.7,1.7,0,0,0,1.729,1.724h9.555a6.017,6.017,0,0,1,4.3,1.782,6.227,6.227,0,0,1,1.3,1.932A5.911,5.911,0,0,1,4816.656,3156.1Z" transform="translate(-4683.942 -3131.531)"/><path class="b" d="M3563.937,2786.025a1.912,1.912,0,0,1,1.356.562h.028v0h9.373l0-.007.008-.014,0-.007v0l.006-.01,0-.007v0l.006-.01,0-.008v0l.006-.01,0-.009v0l.006-.01.005-.009h0l.006-.01.006-.009h0l.006-.01.006-.01h0l.006-.01.006-.01h0l.006-.01.006-.01h0l.006-.01.006-.01h0l.006-.01.006-.01h0l.006-.009.006-.01h0l.006-.009.006-.01h0l.005-.009.006-.01v0l.005-.008.006-.01,0,0,.005-.008.007-.01,0,0,0-.007.007-.009v0l0-.007.009-.012,0-.006.007-.01,0,0,0-.006.007-.009,0,0,0-.006.021-.028,0,0,0-.005.007-.009,0,0,0,0,.007-.009,0-.005,0,0,.007-.009,0-.005,0,0,.007-.009,0-.005.025-.031,0-.006,0,0,.007-.009.005-.006,0,0,.007-.009.021-.025,0,0-4.968-7.147h-.007l-.013,0h-.02l-.014,0h-.006l-.018,0h0l-.02,0h0l-.019,0h0l-.015,0-.008,0-.011,0-.02,0-.016,0h0l-.019,0h0l-.02,0h0l-.017,0-.006,0-.013,0-.01,0-.01,0-.013,0-.006,0-.016-.005h0l-.019-.006h0l-.019-.006h0l-.015-.005-.007,0-.011,0-.01,0-.008,0-.014-.005-.005,0-.017-.006h0l-.019-.008h0l-.016-.007-.005,0-.013-.006-.008,0-.01,0-.011-.005-.007,0-.015-.007h0l-.017-.008h0l-.018-.009h0l-.014-.007-.006,0-.011-.006-.009,0-.008,0-.012-.007,0,0-.015-.008h0l-.017-.01h0l-.016-.009,0,0-.013-.008-.007,0-.01-.006-.01-.006-.007,0-.013-.008,0,0-.016-.01h0l-.016-.011h0l-.014-.01-.005,0-.011-.008-.008-.006-.008-.006-.011-.008-.005,0-.013-.01,0,0-.016-.012h0l-.015-.011,0,0-.012-.01-.006,0-.009-.007-.009-.007-.006-.005-.011-.01,0,0-.014-.012h0l-.015-.013h0l-.013-.012,0,0-.01-.009-.007-.006-.008-.007-.009-.009-.005-.005-.011-.011,0,0-.014-.013A1.917,1.917,0,1,1,3572.3,2777v.014h0v.047h0v.014h0v.062h0v.014h0v.014h0v.046h0v.014h0v.06h0v.013h0v.06h0v.013h0v.033l0,.007v.006l0,.007v.006h0l5.114,7.357h.25l3.156-10.933h0l-.005,0h0l-.01-.008h0l-.005,0-.005,0h0l-.026-.021-.005,0h0l0,0-.005,0h0l0,0-.005,0h0l0,0-.036-.031h0l0,0-.005,0,0,0,0,0-.005,0,0,0,0,0-.005,0,0,0,0,0-.005,0,0,0,0,0-.005,0,0,0,0,0-.005,0,0,0,0,0-.005,0,0,0,0,0-.005,0,0,0,0,0,0,0,0,0h0l-.005,0,0,0h0l0,0,0,0h0l0,0,0,0h0l-.005,0,0,0-.006-.006,0,0h0l0,0,0,0h0l0,0,0,0h0l-.005,0,0,0h0l0,0,0,0h0l0,0,0,0h0l0,0,0,0a3.442,3.442,0,0,1-1.011-2.442v-.044h0v-.089l0-.044,0-.044,0-.044,0-.044,0-.044,0-.043.005-.043h0l.006-.043h0l.006-.043.007-.043h0l.007-.042h0l.008-.042h0l.008-.042h0l.009-.042h0l.009-.042h0l.01-.042h0l.01-.041.011-.042.011-.041.012-.041h0l.012-.041.013-.04.013-.04.014-.04h0l.014-.04.015-.039h0l.016-.04.016-.039.016-.039.016-.038h0l.018-.038.017-.038.018-.038.018-.037.019-.038.019-.037.02-.037.021-.037.02-.036h0l.021-.036.021-.036.022-.035.022-.035.023-.034.023-.035.023-.034.024-.034.024-.034.025-.033.025-.033.025-.033.026-.032.026-.032.027-.032.027-.031.028-.031.028-.031.028-.031.028-.03.029-.03.029-.03a3.454,3.454,0,0,1,4.883,0l.029.03.029.03.028.03.028.031.028.031h0l.027.031h0l.027.031h0l.027.032h0l.026.032h0l.026.032h0l.025.033h0l.025.033h0l.025.033h0l.024.033h0l.024.034h0l.042.062,0,.007h0l.022.035h0l0,.008.034.054.005.009h0l.021.035h0l.021.036h0l.021.036h0l.02.036h0l.02.036h0l.019.037h0l.019.037h0l.018.038h0l.018.037h0l.018.038h0l.017.038h0l.017.039h0l.016.039h0l.015.039h0l.015.039h0l.015.039h0l.014.039h0l.014.04h0l.013.04h0l.013.04h0l.012.04h0l.012.041h0l.011.041h0l.011.041h0l.01.041h0l.01.042h0l.009.042h0l.009.042h0l.008.042h0l.008.042h0l.007.042h0l.007.043h0l.006.043h0l.006.043h0l.005.044h0l0,.043h0l0,.043h0l0,.044h0l0,.044,0,.044,0,.044v.088h0v.044a3.441,3.441,0,0,1-1.011,2.442l-.026.026,0,0-.023.022-.007.007-.019.018-.011.01h0l-.026.024,0,0-.012.011-.019.016-.009.008-.022.019-.005,0-.026.022h0l-.028.023,0,0-.026.021-.006.005-.022.018-.01.008-.019.015-.014.011-.015.011-.018.014-.011.008-.029.022-.027.019,0,0-.03.021h0l-.029.02-.024.016-.007,0-.009.006-.021.014-.013.009-.018.011-.018.011-.013.008-.022.013-.009.006-.026.016,0,0-.031.018h0l-.032.018,0,0-.029.016-.008,0-.024.013-.013.007-.02.01h0l-.031.016-.021.011-.011.005-.026.013-.007,0-.061.029-.006,0h0l-.032.014-.007,0-.027.012-.011.005-.023.01-.034.014-.021.008-.014.005h0l-.066.025-.035.012h0l-.1.035h0l-.071.021-.025.007-.011,0-.03.008-.006,0h0l-.036.009-.037.009h0l-.033.008-.037.008-.014,0-.023,0-.112.021-.034.006h0l-.038.006h0l-.036.005h-.007l-.031,0-.036,0h0l-.017,0-.021,0h0l-.037,0-3.156,10.933.007,0,0,0,0,0,.007.005,0,0,0,0,.006.005h0l.005,0,.007.005.007.005.005,0h0l.007.005,0,0h0l.007.005,0,0,0,0,.006.005,0,0,0,0,.007.005h0l.005,0,.007.005h0l.006,0,.006,0h0l.006.005,0,0h0l.006.005,0,0,0,0,.006.005,0,0,0,0,.006.005h0l0,0,.006.005h0l.006.005.006,0h0l.006.005,0,0h0l.006.005,0,0,0,0,.006.006,0,0,0,0,.006.005h0l0,0,.006.005h0l.006,0,.006.005h0l.006.005.005,0h0l.006.006,0,0,0,0,.006.005,0,0,0,0,.006.006h0l0,0,.006.006h0l.005,0,.006.006h0l.006.006,0,0h0l.006.006,0,0,0,0,.006.006,0,0,0,0,.006.006,0,0,0,0,.006.006h0l0,.005.006.006.005.005,0,0h0l.005.005,0,0h0l.005.005,0,0h0l.005.005,0,0h0l.005.005,0,0,0,0,.005.006,0,0,0,0,.005.006,0,0,0,0,.005.005,0,0,0,0,.005.006,0,0,0,0,.005.006v0l0,0,.005.005h0l0,0,.005.005h0l0,0,0,.006h0l0,0,.005.006h0l.005.005,0,.005h0l0,.005,0,.005h0l0,.005,0,0h0l0,.005,0,0v0l0,.006,0,0v0l.005.006,0,0,0,0,0,.006,0,0,0,0,0,.006,0,0,0,0,0,.006,0,0,0,0,0,.006v0l0,0,0,.006h0l0,0,0,.006h0l0,0,0,.006h0l0,.005,0,.006h0l0,.006,0,.006h0l0,.006,0,.005h0l0,.006,0,0h0l0,.006,0,0h0l0,.006,0,0v0L3586,2784.6h0l0-.036v-.006q.012-.1.03-.2v0l.007-.035h0q.023-.121.055-.239v0l.01-.034h0l.01-.033,0-.006.009-.029,0-.01,0,0q.023-.075.05-.148v0l.012-.033h0l.013-.032,0-.005.011-.028,0-.01c.025-.062.052-.123.081-.183h0l.015-.031,0,0,.013-.026,0-.009.011-.022.007-.014.018-.033v0l.007-.013.012-.022.02-.035,0,0,.018-.03h0l0,0,.039-.064.013-.021.008-.013.011-.016.011-.017.042-.062,0,0,0,0,.02-.029.021-.028,0,0c.031-.043.064-.085.1-.126l.006-.007.019-.023,0,0,.022-.027h0l.026-.03.019-.022.007-.007.016-.019.01-.011.026-.029h0l.01-.011.017-.018.055-.057h0l.028-.028h0l.029-.028h0l.029-.027h0l.029-.027h0l.029-.026h0l.03-.026h0l.03-.026h0l.031-.025h0l.031-.025h0l.031-.025h0l.031-.024h0l.031-.024h0l.032-.023h0l.032-.023h0l.033-.023h0l.033-.022.033-.022h0l.033-.021h0l.033-.021h0l.034-.021h0l.034-.02h0l.034-.02h0l.035-.02h0l.034-.019h0l.035-.019.035-.019.036-.018h0l.036-.017h0l.036-.018.036-.016h0l.037-.016h0l.037-.016h0l.037-.016h0l.037-.015h0l.038-.014h0l.038-.014h0l.038-.013h0l.038-.013h0l.038-.013h0l.038-.012h0l.039-.011h0l.039-.011h0l.039-.011h0l.039-.01h0l.039-.01h0l.04-.01.04-.009.04-.009.04-.008.041-.008h0l.041-.007.041-.006.041-.006h0l.041-.006h0l.041,0h0l.041,0h0l.042,0h0l.042,0h0l.042,0h0l.042,0,.042,0h.255l.042,0,.042,0,.042,0,.042,0,.042,0h0l.042,0h0l.041,0,.041.006.041.006.041.006.041.007.04.008.041.008.04.009.04.009.04.01.04.01.039.01.039.011h0l.039.011.039.011h0l.038.012.039.013.038.013.038.013h0l.038.014h0l.038.014h0l.037.015.037.016h0l.037.016h0l.037.016.036.016.036.018h0l.036.017h0l.036.018.035.019.035.019h0l.035.019.035.02.034.02h0l.034.02h0l.034.021h0l.033.021h0l.033.021h0l.033.022.033.022h0l.032.023h0l.032.023h0l.032.023h0l.031.024h0l.031.024h0l.031.025h0l.031.025h0l.031.025h0l.03.026h0l.03.026h0l.029.026h0l.029.027h0l.029.027h0l.029.028h0l.028.028h0l.028.028h0l.028.028h0l.027.029h0l.027.029h0l.026.029h0l.026.03h0l.026.03h0l.026.03h0l.025.031h0l.024.031.024.031h0l.024.032h0l.023.031h0l.023.032h0l.023.032h0l.022.033h0l.022.033.021.033h0l.021.033.021.034h0l.02.034.02.034h0l.02.034h0l.019.035h0l.019.035.019.036h0l.018.035h0l.018.036.017.036h0l.017.036h0l.016.037.016.037.015.037h0l.015.037h0l.015.038.014.038.013.038h0l.013.038h0l.013.038h0l.012.038.012.039h0l.011.039h0l.011.039.01.039h0l.01.039.01.04.009.04.009.04.008.04.007.04.007.041.006.041.006.041h0l.006.041,0,.042,0,.041,0,.042h0l0,.042,0,.042,0,.042,0,.042v.255l0,.042,0,.042,0,.042,0,.042h0l0,.042,0,.041,0,.041-.006.041h0l-.006.041-.006.041-.007.041-.007.04-.008.041-.009.04-.009.04-.01.04-.01.039h0l-.01.039-.011.039h0l-.011.039h0l-.012.039-.012.038h0l-.013.038h0l-.013.038h0l-.013.038-.014.038-.015.037h0l-.015.037h0l-.015.037-.016.037-.016.036h0l-.017.037h0l-.017.036-.018.036h0l-.018.035h0l-.019.035-.019.035h0l-.019.035h0l-.02.035h0l-.02.034-.02.034h0l-.021.034-.021.033h0l-.021.033-.022.033h0l-.022.033h0l-.023.032h0l-.023.032h0l-.023.032h0l-.024.031h0l-.024.031-.024.031h0l-.025.031h0l-.026.03h0l-.026.03h0l-.026.03h0l-.026.029h0l-.027.029h0l-.027.029h0l-.028.028h0l-.028.028h0l-.028.028h0l-.029.028h0l-.029.027h0l-.029.027h0l-.029.026h0l-.03.026h0l-.03.025h0l-.031.025h0l-.031.025h0l-.031.025h0l-.031.024h0l-.031.024h0l-.032.023h0l-.032.023h0l-.032.023h0l-.033.022-.033.021h0l-.033.022h0l-.033.021h0l-.034.021h0l-.034.02h0l-.034.02-.035.02-.035.019h0l-.035.019-.035.019-.036.018h0l-.036.018h0l-.036.017-.036.017-.037.016h0l-.037.016h0l-.037.015-.037.015h0l-.038.015h0l-.038.014h0l-.038.013-.038.013-.039.013-.038.012h0l-.039.012-.039.011h0l-.039.011-.039.01-.04.01-.04.01-.04.009-.04.009-.041.008-.04.007-.041.007-.041.006-.041.006-.041.005-.041.005h0l-.042,0h0l-.042,0-.042,0-.042,0-.042,0-.042,0h-.255l-.042,0-.042,0h0l-.042,0h0l-.042,0h0l-.042,0h0l-.041,0h0l-.041-.005h0l-.041-.005h0l-.041-.006-.041-.006-.041-.007h0l-.041-.007-.04-.008-.04-.009-.04-.009-.04-.01h0l-.039-.01h0l-.039-.01h0l-.039-.011h0l-.039-.011h0l-.039-.012h0l-.038-.012h0l-.038-.013h0l-.038-.013h0l-.038-.013h0l-.038-.014h0l-.038-.015h0l-.037-.015h0l-.037-.015h0l-.037-.016h0l-.037-.016h0l-.036-.017-.036-.017h0l-.036-.018h0l-.036-.018-.035-.019-.035-.019h0l-.034-.019h0l-.035-.02h0l-.034-.02h0l-.034-.02h0l-.034-.021h0l-.033-.021h0l-.033-.022h0l-.033-.021-.033-.022h0l-.033-.023h0l-.032-.023h0l-.032-.023h0l-.031-.024h0l-.031-.024h0l-.031-.025h0l-.031-.025h0l-.031-.025h0l-.03-.025h0l-.03-.026h0l-.029-.026h0l-.029-.027h0l-.029-.027h0l-.029-.028h0l-.028-.028h0l0,0,0,0h0l0,0,0,0,0,0h0l0,0,0,0,0,0,0,0,0,0,0,0h0l0,0,0,0h0l0,0,0,0,0,0h0l0,0,0,0h0l0,0,0,0-.006-.007,0,0h0l0,0,0,0-.007-.007,0,0h0l0,0,0,0,0,0h0l0,0-.007-.007,0,0,0,0h0l0,0,0,0h0l0,0,0,0,0,0h0l0,0,0,0h0l0,0,0,0,0,0h0l0,0,0,0h0l0,0,0,0,0,0h0l0,0,0,0h0l0,0,0,0,0,0v0l0,0,0,0h0l0,0,0,0,0,0h0l0,0,0,0h0l0,0,0,0h0l-5.217,1.589v.024h0v.023h0v.18h0v.011l0,.011h0v.024l0,.012v.012l0,.012v.012l0,.012v.012l0,.012v.011l0,.012v.012l0,.012v0l0,.01,0,.012h0l0,.011,0,.011h0l0,.012,0,.01v0l0,.012,0,.009v0l0,.012v.011l0,.011v.011l0,.011-.005.023v0l0,.008,0,.011v0l0,.021h0l0,.011,0,.011h0l0,.011,0,.01v0l0,.011,0,.009v0l0,.011,0,.007v0l0,.018v.005l0,.011,3.511,2.572,0,0,.01,0,.011-.005,0,0,.015-.006h0l.012-.005.01,0,.021-.009h0l.014-.006.008,0,.022-.009h0l.044-.016h0l.016-.006.005,0,.01,0,.012,0h0l.042-.013.005,0,.016,0h0l.014,0,.009,0,.007,0,.016,0h0l.023-.007.009,0,.015,0h0l.046-.011h0l.016,0h0l.012,0,.011,0h.005l.016,0h0l.014,0,.01,0h.007l.017,0h0l.016,0h.017l.015,0h0l.016,0h.007l.01,0,.014,0h0l.017,0h0l.012,0,.012,0,.021,0h0l.014,0h.017l.017,0h.277a2.577,2.577,0,1,1-2.577,2.577v-.037h0v-.023h0v-.012h0v-.023h0v-.012h0v-.023h0v-.012h0v-.023h0v-.012h0v-.023h0v-.012h0v-.023h0v-.012h0v-.023h0V2794h0l-3.512-2.572-.01.007-.01.007h0l-.01.007-.01.007h0l-.009.006-.01.007h0l-.008.005-.01.006,0,0-.007,0-.01.006,0,0-.006,0-.011.007-.006,0,0,0-.011.007-.007,0,0,0-.011.006-.009.005h0l-.011.006-.01.006h0l-.011.006-.011.006h0l-.01.006-.011.006h0l-.009.005-.011.006h0l-.008,0-.011.006,0,0-.018.009-.006,0-.017.009-.007,0,0,0-.011.005-.009,0h0l-.021.01h0l-.011.006-.011.005h0l-.011.005-.011.006h0l-.01.005-.011.005h0l-.009,0-.057.026-.006,0-.005,0-.011,0-.008,0,0,0-.021.009h0l-.012,0-.023.01-.012,0h0l-.023.009h0l-.01,0-.012,0h0l-.009,0-.012,0h0l-.007,0v9.84h.078a1.917,1.917,0,1,1-2.711,0h.078v-9.84l-.011,0h0l-.011,0-.011,0h0l-.009,0-.021-.009-.011,0-.006,0,0,0-.011,0-.008,0h0l-.011,0-.01,0h0l-.01,0-.021-.009-.01,0h0l-.007,0-.01,0-.006,0,0,0-.01,0-.008,0h0l-.01,0-.01,0h0l-.01,0-.01-.005h0l-.009,0-.01,0h0l-.007,0-.01,0-.005,0-.005,0-.01-.005-.007,0h0l-.01-.005-.009,0h0l-.01-.005-.01-.005h0l-.01,0-.01-.005,0,0-.007,0-.01-.005,0,0-.006,0-.01-.006-.006,0,0,0-.01-.005-.009,0h0l-.01-.006-.01-.006h0l-.01-.006-.01-.005h0l-.008,0-.01-.006,0,0-.006,0-.01-.006-.006,0,0,0-.01-.006-.008,0h0l-.01-.006-.01-.006h0l-.01-.006-.01-.006-.01-.006-.009-.006,0,0-.006,0-.01-.006-2.5,2.685.017.057,0,.007,0,.016v0l0,.009.015.058,0,.009v0l0,.012.013.059v0l0,.009,0,.024v.012l.011.06,0,.011h0l0,.012,0,.012,0,.012v.024l0,.012v.024h0v.059h0v.1h0v.06h0v.1a2.577,2.577,0,1,1-2.577-2.577h.373l.018,0h.037l.009,0h.018l.009,0h.009l.009,0,.018,0h.009l.009,0h.009l.009,0h0l.008,0,.009,0,.009,0h.009l.009,0h.009l2.812-3.02v-.005l0-.008v-.011h0v-.016h0v-.015h0v-.016h0v-.016h0v-.016h0v-.015h0v-.017h0v-.031h-9.06a1.917,1.917,0,1,1-1.356-3.273Z" transform="translate(-3562.032 -2767.658)"/></g></svg>