<svg xmlns="http://www.w3.org/2000/svg" width="110.126" height="110.126" viewBox="0 0 110.126 110.126"><defs><style>.a{fill:#d7dbe6;}</style></defs><g transform="translate(64.527 40.867)"><path class="a" d="M302.151,190a2.151,2.151,0,1,0,2.151,2.151A2.152,2.152,0,0,0,302.151,190Z" transform="translate(-300 -190)"/></g><path class="a" d="M107.605,95.439,78.9,66.729a42.632,42.632,0,0,0,7.141-23.711A43.018,43.018,0,1,0,43.018,86.036,42.634,42.634,0,0,0,66.729,78.9l7.936,7.936,0,0,20.771,20.771a8.6,8.6,0,1,0,12.166-12.166ZM65.718,74.362h0a38.755,38.755,0,1,1,8.645-8.645A38.9,38.9,0,0,1,65.718,74.362Zm4.513,1.95a43.164,43.164,0,0,0,6.082-6.082l6.1,6.1a52.21,52.21,0,0,1-6.082,6.082Zm34.333,28.251a4.3,4.3,0,0,1-6.082,0l-19.1-19.1a56.521,56.521,0,0,0,6.082-6.082l19.1,19.1a4.3,4.3,0,0,1,0,6.081Z"/><g transform="translate(8.604 8.604)"><path class="a" d="M74.414,40a34.414,34.414,0,1,0,34.414,34.414A34.453,34.453,0,0,0,74.414,40Zm0,64.527a30.113,30.113,0,1,1,30.113-30.113A30.147,30.147,0,0,1,74.414,104.527Z" transform="translate(-40 -40)"/></g><g transform="translate(40.867 17.207)"><path class="a" d="M216.255,96.578A25.851,25.851,0,0,0,192.151,80a2.151,2.151,0,1,0,0,4.3,21.656,21.656,0,0,1,20.089,13.819,2.151,2.151,0,1,0,4.016-1.543Z" transform="translate(-190 -80)"/></g></svg>