<svg xmlns="http://www.w3.org/2000/svg" width="124.015" height="124.042" viewBox="0 0 124.015 124.042"><defs><style>.a{fill:#d7dbe6;}</style></defs><g transform="translate(-0.017 0)"><g transform="translate(0.017 0.001)"><path class="a" d="M78.916,13.748,47.905.173a2.067,2.067,0,0,0-1.654,0L15.24,13.748A2.067,2.067,0,0,0,14,15.641V48.1a22.77,22.77,0,0,0,9.427,18.416L44.86,81.974a3.784,3.784,0,0,0,4.437,0L70.729,66.518A22.77,22.77,0,0,0,80.157,48.1V15.641A2.067,2.067,0,0,0,78.916,13.748ZM76.022,48.1A18.625,18.625,0,0,1,68.31,63.164L47.078,78.478,25.846,63.164A18.625,18.625,0,0,1,18.135,48.1V16.993L47.078,4.324,76.022,16.993Z" transform="translate(14.907 -0.001)"/><path class="a" d="M41.982,4.539,19.24,14.5A2.067,2.067,0,0,0,18,16.389V43.441a14.472,14.472,0,0,0,6,11.71l17.6,12.7a2.067,2.067,0,0,0,2.419,0l17.6-12.7a14.472,14.472,0,0,0,6-11.71V16.389a2.067,2.067,0,0,0-1.24-1.894L43.636,4.539A2.067,2.067,0,0,0,41.982,4.539Zm21.5,13.2v25.7A10.338,10.338,0,0,1,59.2,51.8L42.809,63.623,26.414,51.8a10.338,10.338,0,0,1-4.279-8.356v-25.7L42.809,8.69Z" transform="translate(19.177 4.66)"/><path class="a" d="M17.11,40.623,12.638,30.175A6.591,6.591,0,0,0,.579,35.5l8.1,17.823A21.958,21.958,0,0,0,13.169,59.8L25.911,72.544a4.11,4.11,0,0,0-1.121,2.812V91.895a4.135,4.135,0,0,0,4.135,4.135H51.666A4.135,4.135,0,0,0,55.8,91.895V75.355a4.135,4.135,0,0,0-4.135-4.135V67.373a21.662,21.662,0,0,0-4.532-13.541,14.886,14.886,0,0,0-6.891-5.026,40.9,40.9,0,0,1-11.836-7.6A9.51,9.51,0,0,0,17.11,40.623ZM51.666,91.895H28.925V75.355H51.666ZM43.907,56.414a17.542,17.542,0,0,1,3.624,10.959v3.847h-17.1L16.093,56.877a17.881,17.881,0,0,1-3.649-5.266l-8.1-17.823A2.457,2.457,0,1,1,8.836,31.8l4.625,10.786a24.4,24.4,0,0,0,5.214,7.7l9.444,9.446a2.067,2.067,0,1,0,2.923-2.923L21.6,47.367a20.391,20.391,0,0,1-2.549-3.1,5.375,5.375,0,0,1,6.7.112,44.075,44.075,0,0,0,13.19,8.352A10.86,10.86,0,0,1,43.907,56.414Z" transform="translate(-0.017 28.013)"/><path class="a" d="M24.135,53H22.067a2.067,2.067,0,0,0,0,4.135h2.067a2.067,2.067,0,0,0,0-4.135Z" transform="translate(21.312 56.571)"/><path class="a" d="M80.12,53.371l8.1-17.823a6.591,6.591,0,1,0-12.057-5.324L71.7,40.634a9.535,9.535,0,0,0-11.311.62,40.894,40.894,0,0,1-11.836,7.6,14.885,14.885,0,0,0-6.891,5.026,21.662,21.662,0,0,0-4.532,13.548v3.847A4.135,4.135,0,0,0,33,75.405V91.945a4.135,4.135,0,0,0,4.135,4.135H59.876a4.135,4.135,0,0,0,4.135-4.135V75.405a4.11,4.11,0,0,0-1.121-2.812L75.632,59.85A21.957,21.957,0,0,0,80.12,53.371ZM59.876,91.945H37.135V75.405H59.876ZM58.365,71.271H41.27V67.423a17.542,17.542,0,0,1,3.624-10.957,10.867,10.867,0,0,1,4.962-3.686,44.057,44.057,0,0,0,13.192-8.352,5.375,5.375,0,0,1,6.709-.13,20.271,20.271,0,0,1-2.562,3.122l-9.444,9.446a2.067,2.067,0,0,0,2.923,2.923l9.444-9.446a24.394,24.394,0,0,0,5.214-7.7l4.625-10.788a2.457,2.457,0,1,1,4.495,1.987l-8.1,17.823A17.879,17.879,0,0,1,72.7,56.929Z" transform="translate(35.188 27.963)"/><path class="a" d="M41.135,53H39.067a2.067,2.067,0,1,0,0,4.135h2.067a2.067,2.067,0,0,0,0-4.135Z" transform="translate(39.457 56.571)"/><path class="a" d="M26.308,31.02a2.067,2.067,0,1,0-2.481,3.308l8.27,6.2a2.068,2.068,0,0,0,1.24.413,2.223,2.223,0,0,0,.349-.029,2.067,2.067,0,0,0,1.371-.891L51.6,15.215a2.068,2.068,0,0,0-3.44-2.295L32.828,35.912Z" transform="translate(24.514 12.808)"/></g></g></svg>