<svg xmlns="http://www.w3.org/2000/svg" width="71.046" height="75.939" viewBox="0 0 71.046 75.939"><defs><style>.a{fill:#d7dbe6;}</style></defs><path class="a" d="M193.579,394.293H162.425a1.121,1.121,0,0,0,0,2.242h31.153a1.121,1.121,0,1,0,0-2.242Zm0,0" transform="translate(-137.38 -335.812)"/><path class="a" d="M193.579,341.215H162.425a1.121,1.121,0,0,0,0,2.242h31.153a1.121,1.121,0,1,0,0-2.242Zm0,0" transform="translate(-137.38 -290.606)"/><path class="a" d="M161.3,289.226a1.121,1.121,0,0,0,1.121,1.121H182.25a1.121,1.121,0,1,0,0-2.242H162.426A1.121,1.121,0,0,0,161.3,289.226Zm0,0" transform="translate(-137.38 -245.374)"/><path class="a" d="M68.028,14.7,66.008,12.51V4.665A4.677,4.677,0,0,0,61.329,0H11.2A4.677,4.677,0,0,0,6.518,4.665v8.849H4.468A4.475,4.475,0,0,0,0,17.985V31.553a4.475,4.475,0,0,0,4.469,4.471h2.05V67.29A4.677,4.677,0,0,0,11.2,71.954h2.561a4.549,4.549,0,0,0,4.509,3.985H66.5A4.55,4.55,0,0,0,71.046,71.4V22.983c0-3.962-.119-5.129-3.017-8.279Zm.729,5.973h-8.4a2.306,2.306,0,0,1-2.306-2.3l.008-9.747c1.474.11,1.867.545,3.159,1.982.214.239.448.5.709.781l2.143,2.326.023.025,2.283,2.478c1.78,1.935,2.253,2.747,2.379,4.455ZM8.76,4.665A2.433,2.433,0,0,1,11.2,2.242H61.329a2.433,2.433,0,0,1,2.437,2.423v5.412l-.187-.2c-.254-.275-.481-.528-.69-.761-1.842-2.049-2.648-2.757-5.946-2.757H18.266A4.548,4.548,0,0,0,13.722,10.9v2.616H8.76ZM68.8,71.4A2.306,2.306,0,0,1,66.5,73.7H18.266a2.3,2.3,0,0,1-2.3-2.3V55.155a1.121,1.121,0,0,0-2.242,0V69.713H11.2A2.433,2.433,0,0,1,8.76,67.29V36.024h4.962v14a1.121,1.121,0,0,0,2.242,0v-14h5.818a1.121,1.121,0,0,0,0-2.242H4.468a2.231,2.231,0,0,1-2.227-2.229V17.985a2.231,2.231,0,0,1,2.227-2.229H33.986a2.233,2.233,0,0,1,2.231,2.229V31.553a2.233,2.233,0,0,1-2.231,2.229H26.917a1.121,1.121,0,1,0,0,2.242h7.069a4.477,4.477,0,0,0,4.473-4.471V17.985a4.477,4.477,0,0,0-4.473-4.471H15.964V10.9a2.3,2.3,0,0,1,2.3-2.3H55.821l-.008,9.779a4.551,4.551,0,0,0,4.548,4.542H68.8V71.4Zm0,0" transform="translate(0 0)"/><path class="a" d="M53.418,134.637H50.733a1.143,1.143,0,0,0-.841.346,1.16,1.16,0,0,0-.346.854v7.937a1.132,1.132,0,0,0,.339.833,1.145,1.145,0,0,0,1.95-.8v-2.3H53.56a3.413,3.413,0,0,0,2.515-.939,3.649,3.649,0,0,0-.056-4.965,3.606,3.606,0,0,0-2.6-.961Zm.834,4.449a1.314,1.314,0,0,1-.961.41H51.836v-2.811h1.469a1.271,1.271,0,0,1,.968.417,1.428,1.428,0,0,1,.388,1.01A1.329,1.329,0,0,1,54.252,139.086Zm0,0" transform="translate(-42.198 -114.668)"/><path class="a" d="M116.254,137.41a4.418,4.418,0,0,0-1.406-1.758,5.378,5.378,0,0,0-3.25-.918h-2.36a1.11,1.11,0,0,0-.834.353,1.131,1.131,0,0,0-.34.805v7.867a1.128,1.128,0,0,0,.325.833,1.257,1.257,0,0,0,.862.311H111.8a4.766,4.766,0,0,0,3.306-1.116,5.155,5.155,0,0,0,1.653-4,5.647,5.647,0,0,0-.5-2.38Zm-2.593,4.6a2.472,2.472,0,0,1-1.95.833h-1.356V136.81h1.229a2.684,2.684,0,0,1,2.056.805,3.05,3.05,0,0,1,.755,2.175,3.232,3.232,0,0,1-.735,2.217Zm0,0" transform="translate(-92.038 -114.75)"/><path class="a" d="M177.748,144.979a1.094,1.094,0,0,0,.812-.339,1.111,1.111,0,0,0,.332-.8V140.8h2.176a1.065,1.065,0,0,0,.777-.3,1.014,1.014,0,0,0-.007-1.469,1.075,1.075,0,0,0-.77-.3h-2.176v-1.992h2.572a.973.973,0,0,0,.735-.311,1.009,1.009,0,0,0,.3-.72,1.024,1.024,0,0,0-.3-.756.992.992,0,0,0-.728-.3h-3.7a1.111,1.111,0,0,0-.834.353,1.148,1.148,0,0,0-.339.819v8.022a1.077,1.077,0,0,0,.353.805,1.133,1.133,0,0,0,.805.339Zm0,0" transform="translate(-150.398 -114.671)"/></svg>