<svg xmlns="http://www.w3.org/2000/svg" width="31" height="31" viewBox="0 0 31 31">
  <g id="print_icon" data-name="print icon" transform="translate(-816 -263)">
    <g id="_92204" data-name="92204" transform="translate(821 259.367)">
      <path id="Path_2289" data-name="Path 2289" d="M20.1,14.243H17.681V10.287a.654.654,0,0,0-.654-.654H4.6a.654.654,0,0,0-.654.654v3.956H1.526A1.528,1.528,0,0,0,0,15.769v8.391a1.528,1.528,0,0,0,1.526,1.526H3.949v3.244a.654.654,0,0,0,.654.654H17.027a.654.654,0,0,0,.654-.654V25.685H20.1a1.528,1.528,0,0,0,1.526-1.526V15.769A1.528,1.528,0,0,0,20.1,14.243Zm-14.848-3.3H16.373v3.3H5.257ZM16.373,28.275H5.257V21.787H16.373Zm3.949-4.116a.221.221,0,0,1-.218.218H17.681V21.133a.654.654,0,0,0-.654-.654H4.6a.654.654,0,0,0-.654.654v3.244H1.526a.221.221,0,0,1-.218-.218V15.769a.221.221,0,0,1,.218-.218H20.1a.221.221,0,0,1,.218.218v8.391Z" fill="#6b7280"/>
      <circle id="Ellipse_4317" data-name="Ellipse 4317" cx="0.93" cy="0.93" r="0.93" transform="translate(16.097 17.085)" fill="#6b7280"/>
      <path id="Path_2290" data-name="Path 2290" d="M89.012,163.822H83.061a.654.654,0,0,0,0,1.308h5.951a.654.654,0,0,0,0-1.308Z" transform="translate(-75.221 -140.744)" fill="#6b7280"/>
      <path id="Path_2291" data-name="Path 2291" d="M89.012,193.623H83.061a.654.654,0,1,0,0,1.308h5.951a.654.654,0,1,0,0-1.308Z" transform="translate(-75.221 -167.946)" fill="#6b7280"/>
    </g>
    <rect id="Rectangle_4024" data-name="Rectangle 4024" width="31" height="31" transform="translate(816 263)" fill="none"/>
  </g>
</svg>
