<svg id="redo_icon" data-name="redo icon" xmlns="http://www.w3.org/2000/svg" width="31" height="31" viewBox="0 0 31 31">
  <g id="_709606" data-name="709606" transform="translate(6.739 8)">
    <g id="Group_3302" data-name="Group 3302" transform="translate(12.986)">
      <g id="Group_3301" data-name="Group 3301" transform="translate(0 0)">
        <path id="Path_2300" data-name="Path 2300" d="M.184,52.168,3.537,48.33.184,44.492a.746.746,0,1,1,1.124-.982L5.09,47.839a.746.746,0,0,1,0,.982L1.308,53.15a.746.746,0,0,1-1.124-.982Z" transform="translate(0 -43.255)" fill="#6b7280"/>
      </g>
    </g>
    <g id="Group_3304" data-name="Group 3304" transform="translate(0 4.329)">
      <g id="Group_3303" data-name="Group 3303" transform="translate(0 0)">
        <path id="Path_2301" data-name="Path 2301" d="M5.424,164.619H17.514a.746.746,0,0,1,0,1.493H5.424a3.931,3.931,0,1,0,0,7.861h11.1a.746.746,0,1,1,0,1.493H5.424a5.423,5.423,0,1,1,0-10.847Z" transform="translate(0 -164.619)" fill="#6b7280"/>
      </g>
    </g>
  </g>
  <rect id="Rectangle_4024" data-name="Rectangle 4024" width="31" height="31" fill="none"/>
</svg>
