<svg xmlns="http://www.w3.org/2000/svg" width="23" height="22" viewBox="0 0 23 22"><defs><style>.a{fill:#5e6167;}</style></defs><path class="a" d="M22.5,11.017a1.646,1.646,0,0,0-.915-2.809L16.017,7.4a.727.727,0,0,1-.548-.4L12.98,1.965a1.651,1.651,0,0,0-2.958,0L7.531,7a.728.728,0,0,1-.549.4l-5.569.808A1.646,1.646,0,0,0,.5,11.017l4.029,3.921a.727.727,0,0,1,.21.644L3.788,21.12a1.649,1.649,0,0,0,2.393,1.736l4.98-2.614a.73.73,0,0,1,.678,0l4.981,2.614a1.649,1.649,0,0,0,2.393-1.736l-.952-5.537a.727.727,0,0,1,.21-.644Zm-5.147,4.721.951,5.537a.728.728,0,0,1-1.057.767l-4.981-2.615a1.652,1.652,0,0,0-1.535,0l-4.98,2.614A.728.728,0,0,1,4.7,21.275l.951-5.537a1.645,1.645,0,0,0-.474-1.458l-4.03-3.922a.727.727,0,0,1,.4-1.241l5.569-.808a1.647,1.647,0,0,0,1.242-.9l2.49-5.038a.729.729,0,0,1,1.307,0l2.49,5.038a1.646,1.646,0,0,0,1.242.9l5.569.808a.727.727,0,0,1,.4,1.241L17.828,14.28A1.644,1.644,0,0,0,17.354,15.738Z" transform="translate(0 -1.047)"/></svg>