<svg xmlns="http://www.w3.org/2000/svg" width="37" height="37" viewBox="0 0 37 37"><defs><style>.a{fill:#05070c;}</style></defs><path class="a" d="M18.5,0A18.5,18.5,0,1,0,37,18.5,18.5,18.5,0,0,0,18.5,0Zm8.447,14.424q.012.273.012.549A12,12,0,0,1,14.877,27.055h0a12.019,12.019,0,0,1-6.509-1.907,8.636,8.636,0,0,0,1.013.059,8.52,8.52,0,0,0,5.274-1.818,4.251,4.251,0,0,1-3.967-2.949,4.232,4.232,0,0,0,1.918-.073A4.247,4.247,0,0,1,9.2,16.2c0-.019,0-.036,0-.054a4.217,4.217,0,0,0,1.923.531,4.25,4.25,0,0,1-1.315-5.669,12.056,12.056,0,0,0,8.753,4.437A4.249,4.249,0,0,1,25.8,11.576a8.517,8.517,0,0,0,2.7-1.031,4.263,4.263,0,0,1-1.867,2.349,8.469,8.469,0,0,0,2.438-.669,8.629,8.629,0,0,1-2.118,2.2Zm0,0"/></svg>