<svg xmlns="http://www.w3.org/2000/svg" width="74.5" height="75.774" viewBox="0 0 74.5 75.774"><defs><style>.a{fill:#d7dbe6;}</style></defs><g transform="translate(0)"><path class="a" d="M77.62,63.119a1.187,1.187,0,0,0,1.186-1.186V12.576a1.2,1.2,0,0,0-.347-.839L67.069.348A1.2,1.2,0,0,0,66.23,0H19.4a3.722,3.722,0,0,0-3.718,3.718V5.062H5.484a1.2,1.2,0,0,0-.839,2.025l9.285,9.285L4.645,25.658a1.2,1.2,0,0,0,.839,2.025h10.2V72.057a3.722,3.722,0,0,0,3.718,3.718H75.089a3.722,3.722,0,0,0,3.718-3.718V66.994a1.186,1.186,0,1,0-2.373,0v5.062A1.346,1.346,0,0,1,75.089,73.4H19.4a1.346,1.346,0,0,1-1.345-1.345V27.684h7.672a1.186,1.186,0,0,0,0-2.373H8.348l8.1-8.1a1.186,1.186,0,0,0,0-1.678l-8.1-8.1H59.981V25.311H30.795a1.186,1.186,0,0,0,0,2.373H61.168A1.187,1.187,0,0,0,62.354,26.5V6.249a1.187,1.187,0,0,0-1.186-1.186H18.06V3.717a1.346,1.346,0,0,1,1.345-1.345H65.043v7.672a3.722,3.722,0,0,0,3.718,3.718h7.672V61.932A1.187,1.187,0,0,0,77.62,63.119ZM68.761,11.39a1.346,1.346,0,0,1-1.345-1.345V4.051l7.339,7.339Z" transform="translate(-4.307)"/></g><g transform="translate(21.505 11.39)"><path class="a" d="M155.863,76.96H150.8a1.186,1.186,0,0,0,0,2.373h1.345V85.74a1.186,1.186,0,0,0,2.373,0V79.333h1.345a1.186,1.186,0,1,0,0-2.373Z" transform="translate(-149.614 -76.96)"/></g><g transform="translate(39.222 11.39)"><path class="a" d="M275.579,76.96h-5.062a1.186,1.186,0,0,0,0,2.373h1.345V85.74a1.186,1.186,0,0,0,2.373,0V79.333h1.345a1.186,1.186,0,1,0,0-2.373Z" transform="translate(-269.33 -76.96)"/></g><g transform="translate(30.364 11.389)"><path class="a" d="M214.616,81.941l2.092-3.139a1.186,1.186,0,1,0-1.974-1.316L213.191,79.8l-1.544-2.316a1.186,1.186,0,0,0-1.974,1.316l2.092,3.139-2.092,3.139a1.186,1.186,0,1,0,1.974,1.316l1.544-2.316,1.544,2.316a1.186,1.186,0,1,0,1.974-1.316Z" transform="translate(-209.473 -76.958)"/></g><g transform="translate(22.77 31.638)"><path class="a" d="M197.786,221.6l-1.79-1.79a2.455,2.455,0,0,0-3.468,0l-6.68,6.68V216.231a2.455,2.455,0,0,0-2.452-2.452h-22.78a2.455,2.455,0,0,0-2.452,2.452v6.328a1.186,1.186,0,1,0,2.373,0v-6.328a.079.079,0,0,1,.079-.079H183.4a.079.079,0,0,1,.079.079v12.635l-6.427,6.427h-11.37a1.186,1.186,0,1,0,0,2.373h9l-1.835,1.835-.006.007-.025.028c-.022.024-.044.049-.064.074l-.025.034c-.019.026-.037.053-.054.081l-.02.033q-.027.048-.05.1l-.008.016-.008.018,0,0-1.282,2.992h-5.619a1.186,1.186,0,1,0,0,2.373h4.6l-.376.877a1.2,1.2,0,0,0,1.558,1.558l6.242-2.675h0l.019-.008.017-.009c.033-.015.066-.031.1-.049l.034-.02c.027-.017.054-.035.08-.054l.034-.025c.025-.02.05-.041.074-.064l.028-.025.007-.006,5.377-5.377v9.754a.079.079,0,0,1-.079.079H160.617a.079.079,0,0,1-.079-.079v-22.78a1.186,1.186,0,1,0-2.373,0v22.78a2.455,2.455,0,0,0,2.452,2.452H183.4a2.455,2.455,0,0,0,2.452-2.452V237.008l9.252-9.252h0l2.684-2.684A2.475,2.475,0,0,0,197.786,221.6Zm-24.531,22.741.826-1.927,1.1,1.1Zm4.005-2.1-1.9-1.9,15.325-15.325,1.9,1.9Zm18.848-18.848-1.846,1.846-1.9-1.9,1.846-1.846a.079.079,0,0,1,.112,0l1.79,1.79a.075.075,0,0,1,.023.056A.076.076,0,0,1,196.108,223.393Z" transform="translate(-158.165 -213.779)"/></g><g transform="translate(29.098 37.966)"><path class="a" d="M214.764,256.534H202.109a1.186,1.186,0,1,0,0,2.373h12.655a1.186,1.186,0,1,0,0-2.373Z" transform="translate(-200.922 -256.534)"/></g><g transform="translate(29.098 45.559)"><path class="a" d="M214.764,307.841H202.109a1.186,1.186,0,0,0,0,2.373h12.655a1.186,1.186,0,0,0,0-2.373Z" transform="translate(-200.922 -307.841)"/></g></svg>