<svg xmlns="http://www.w3.org/2000/svg" width="31" height="31" viewBox="0 0 31 31">
  <g id="undo_icon" data-name="undo icon" transform="translate(-974 -263)">
    <g id="_709606" data-name="709606" transform="translate(980 227.745)">
      <g id="Group_3302" data-name="Group 3302" transform="translate(0 43.255)">
        <g id="Group_3301" data-name="Group 3301" transform="translate(0 0)">
          <path id="Path_2300" data-name="Path 2300" d="M5.09,52.168,1.737,48.33,5.09,44.492a.746.746,0,1,0-1.124-.982L.184,47.839a.746.746,0,0,0,0,.982L3.966,53.15a.746.746,0,0,0,1.124-.982Z" transform="translate(0 -43.255)" fill="#6b7280"/>
        </g>
      </g>
      <g id="Group_3304" data-name="Group 3304" transform="translate(0 47.584)">
        <g id="Group_3303" data-name="Group 3303" transform="translate(0 0)">
          <path id="Path_2301" data-name="Path 2301" d="M12.837,164.619H.746a.746.746,0,0,0,0,1.493H12.837a3.931,3.931,0,1,1,0,7.861H1.741a.746.746,0,0,0,0,1.493h11.1a5.423,5.423,0,1,0,0-10.847Z" transform="translate(0 -164.619)" fill="#6b7280"/>
        </g>
      </g>
    </g>
    <rect id="Rectangle_4024" data-name="Rectangle 4024" width="31" height="31" transform="translate(974 263)" fill="none"/>
  </g>
</svg>
