<svg xmlns="http://www.w3.org/2000/svg" width="31" height="31" viewBox="0 0 31 31">
  <g id="update_icon" data-name="update icon" transform="translate(-579 -263)">
    <g id="_66934" data-name="66934" transform="translate(584 259.845)">
      <g id="Group_3297" data-name="Group 3297" transform="translate(0 9.155)">
        <path id="Path_2286" data-name="Path 2286" d="M27.277,10.837a.743.743,0,0,0-.882.571l-.54,2.519A9.657,9.657,0,0,0,7.868,18.811a.743.743,0,1,0,1.486,0,8.172,8.172,0,0,1,15.238-4.1l-2.476-.531A.743.743,0,0,0,21.8,15.63l4.251.911a.743.743,0,0,0,.882-.571l.911-4.251A.743.743,0,0,0,27.277,10.837Z" transform="translate(-7.4 -9.155)" fill="#6b7280"/>
        <path id="Path_2287" data-name="Path 2287" d="M19.13,155.263a.743.743,0,0,0-.718.767,8.171,8.171,0,0,1-7.9,8.436c-.091,0-.181,0-.272,0A8.17,8.17,0,0,1,3.294,160.6l2.582.692a.743.743,0,0,0,.385-1.435l-4.2-1.126a.743.743,0,0,0-.91.525l-1.126,4.2a.743.743,0,1,0,1.435.385l.633-2.36a9.652,9.652,0,0,0,8.149,4.479c.107,0,.214,0,.321-.005a9.656,9.656,0,0,0,9.332-9.97A.742.742,0,0,0,19.13,155.263Z" transform="translate(0 -146.581)" fill="#6b7280"/>
      </g>
    </g>
    <rect id="Rectangle_4024" data-name="Rectangle 4024" width="31" height="31" transform="translate(579 263)" fill="none"/>
  </g>
</svg>
