<svg xmlns="http://www.w3.org/2000/svg" width="78.735" height="86.248" viewBox="0 0 78.735 86.248"><defs><style>.a{fill:#00b5a9;}</style></defs><path class="a" d="M58.984,37.336V21.014a1.886,1.886,0,0,0-.523-1.24L40.1.557A1.833,1.833,0,0,0,38.782,0H9.668A9.683,9.683,0,0,0,0,9.725V64.587a9.622,9.622,0,0,0,9.668,9.653H32.649a24.777,24.777,0,1,0,26.335-36.9ZM40.586,6.31l12.32,12.924H44.914A4.349,4.349,0,0,1,40.586,14.9ZM9.668,70.645a6.033,6.033,0,0,1-6.06-6.058V9.725A6.082,6.082,0,0,1,9.668,3.6h27.31V14.9a7.938,7.938,0,0,0,7.937,7.927H55.376V36.868c-.541-.018-.974-.072-1.443-.072a25.219,25.219,0,0,0-16.45,6.184H14.575a1.8,1.8,0,1,0,0,3.595H34.128a28.574,28.574,0,0,0-3.175,5.573H14.575a1.8,1.8,0,1,0,0,3.6H29.781a24.59,24.59,0,0,0,1.082,14.92H9.668ZM53.916,82.671A21.122,21.122,0,1,1,75.11,61.549,21.18,21.18,0,0,1,53.916,82.671Zm0,0" transform="translate(0)"/><path class="a" d="M77.286,205.154H94.862a1.735,1.735,0,1,0,0-3.47H77.286a1.735,1.735,0,1,0,0,3.47Zm0,0" transform="translate(-62.593 -167.658)"/><path class="a" d="M258.726,283.766a1.722,1.722,0,0,0-2.533,0L246.025,294.68a1.729,1.729,0,0,0,.087,2.447,1.772,1.772,0,0,0,2.481-.086l7.183-7.686V308.3a1.735,1.735,0,1,0,3.47,0V289.353l7.131,7.686a1.731,1.731,0,0,0,2.534-2.36Zm0,0" transform="translate(-203.326 -234.163)"/></svg>