<svg xmlns="http://www.w3.org/2000/svg" width="31" height="31" viewBox="0 0 31 31"><defs><style>.a{fill:none;}.b{fill:#fff;}</style></defs><g transform="translate(-145 -98)"><rect class="a" width="31" height="31" transform="translate(145 98)"/><g transform="translate(150 33.626)"><path class="b" d="M21.331,79.794A1.734,1.734,0,0,0,20.577,79a2.293,2.293,0,0,0-1.115-.276H17.3v-1.8A2.538,2.538,0,0,0,14.776,74.4H8.65v-.36a2.428,2.428,0,0,0-.743-1.779,2.428,2.428,0,0,0-1.78-.743h-3.6a2.428,2.428,0,0,0-1.78.743A2.428,2.428,0,0,0,0,74.039V84.851A2.427,2.427,0,0,0,.743,86.63a2.428,2.428,0,0,0,1.78.744H14.777a3.688,3.688,0,0,0,1.577-.389A3.658,3.658,0,0,0,17.66,86l3.323-4.088A2.152,2.152,0,0,0,21.5,80.56,1.78,1.78,0,0,0,21.331,79.794ZM1.442,74.039a1.077,1.077,0,0,1,1.081-1.081h3.6a1.077,1.077,0,0,1,1.081,1.081v.721a1.077,1.077,0,0,0,1.081,1.081h6.487a1.076,1.076,0,0,1,1.081,1.081v1.8H7.208a3.638,3.638,0,0,0-1.577.389,3.8,3.8,0,0,0-1.307.986L1.442,83.646V74.039ZM19.856,81l-3.311,4.088a2.574,2.574,0,0,1-1.768.844H2.523q-.6,0-.6-.394a.823.823,0,0,1,.2-.451L5.44,81a2.326,2.326,0,0,1,.805-.591,2.262,2.262,0,0,1,.963-.242H19.462q.6,0,.6.394A.734.734,0,0,1,19.856,81Z" transform="translate(0)"/></g></g></svg>