<svg xmlns="http://www.w3.org/2000/svg" width="130.538" height="115" viewBox="0 0 130.538 115"><defs><style>.a{fill:#d7dbe6;}</style></defs><g transform="translate(0 -30.471)"><g transform="translate(31.437 51.274)"><path class="a" d="M151.636,112.065h-26.42a1.912,1.912,0,1,0,0,3.824h26.42a1.912,1.912,0,0,0,0-3.824Z" transform="translate(-123.304 -112.065)"/></g><g transform="translate(79.624 115.599)"><path class="a" d="M328.361,364.364H314.217a1.912,1.912,0,0,0,0,3.824h14.144a1.912,1.912,0,0,0,0-3.824Z" transform="translate(-312.305 -364.364)"/></g><g transform="translate(0 30.471)"><g transform="translate(0)"><path class="a" d="M121.421,57.459a1.913,1.913,0,0,0,2.6-.748,50.637,50.637,0,0,0,6.512-19.919,1.932,1.932,0,0,0-2.062-2.062c-7.3.6-15.285,3.547-22.936,8.3a25.8,25.8,0,0,0-3.173-7.968c-2-3.049-4.6-4.6-7.747-4.6H11.164c-3.952,0-6.936,1.27-8.867,3.775C-1.453,39.107.5,46.754.582,47.078A1.913,1.913,0,0,0,2.431,48.5H19.264c1.71,10.881,1.623,26.354,1.542,40.6-.041,7.231-.084,14.708.09,21.523a1.912,1.912,0,0,0,3.823-.1c-.172-6.755-.13-14.2-.089-21.4.1-17.066.19-33.483-2.2-44.573-.227-1.055-.486-2.106-.789-3.143A22.1,22.1,0,0,0,18.367,34.3H94.612c3.465,0,5.928,3.593,7.513,10.974-2.064,1.451-4.076,3.03-6.028,4.714A80.027,80.027,0,0,0,84.237,62.7H33.349a1.912,1.912,0,1,0,0,3.824H81.573a68.347,68.347,0,0,0-3.79,6.574H33.349a1.912,1.912,0,1,0,0,3.824h42.67A52.139,52.139,0,0,0,73.753,83.5h-40.4a1.912,1.912,0,0,0,0,3.824H72.9c-.159.911-.281,1.813-.372,2.706L66.62,95.937a1.912,1.912,0,0,0,0,2.7,1.937,1.937,0,0,0,2.7,0l5.9-5.9A44.211,44.211,0,0,0,85.605,90.31a60.724,60.724,0,0,0,9.942-4.649A73.128,73.128,0,0,0,104.29,79.7c0,3.13-.019,6.3-.037,9.4-.078,13.743-.159,27.922,1.248,38.34H42.081a1.927,1.927,0,0,0-1.862,2.337c0,.019.006.038.011.057l.008.032c.106.442,1.4,6.123-.959,9.368l-.021.029c-1.358,1.844-3.759,2.4-5.933,2.385-4.647-.026-7.361-7.726-8.3-23.537a1.912,1.912,0,0,0-3.817.226c.748,12.634,2.8,27.136,12.139,27.136H116.8c3.952,0,6.936-1.27,8.867-3.775,3.749-4.862,1.8-12.508,1.714-12.832a1.912,1.912,0,0,0-1.849-1.426H109.363c-1.444-10.178-1.364-24.47-1.285-38.318.024-4.171.048-8.472.031-12.641q1.595-1.432,3.131-2.966a79.171,79.171,0,0,0,8.611-10.176,1.912,1.912,0,0,0-3.121-2.211,75.341,75.341,0,0,1-8.194,9.682,75.94,75.94,0,0,1-7.643,6.689A59.246,59.246,0,0,1,80.575,87.875c-.215.056-.432.109-.648.162l33.982-33.981a1.912,1.912,0,1,0-2.7-2.7L77.223,85.334c.049-.2.1-.395.147-.593A57.32,57.32,0,0,1,87.759,64.375l.005-.007.044-.057a76.149,76.149,0,0,1,15.361-15.076c7.616-5.585,15.785-9.276,23.275-10.419a49.117,49.117,0,0,1-5.771,16.043A1.912,1.912,0,0,0,121.421,57.459ZM18.541,44.679H4.012a18.4,18.4,0,0,1-.189-2.246,9.519,9.519,0,0,1,1.507-5.86c1.172-1.514,3.048-2.26,5.731-2.278l1.252.138.054.014c2.529.659,4.5,3.7,5.888,9.045C18.357,43.886,18.452,44.282,18.541,44.679Zm105.4,86.584c.29,2.027.5,5.753-1.307,8.1-1.187,1.538-3.1,2.286-5.839,2.286H42.254c2.459-3.234,2.427-7.675,2.1-10.384Z" transform="translate(0 -30.471)"/></g></g></g></svg>